<svg xmlns="http://www.w3.org/2000/svg" width="53.255" height="54.479" viewBox="0 0 53.255 54.479">
  <g id="Group_16" data-name="Group 16" transform="translate(-183.373 -43)">
    <g id="Group_13" data-name="Group 13" transform="translate(4102.538 -2170)">
      <circle id="Ellipse_5" data-name="Ellipse 5" cx="20" cy="20" r="20" transform="translate(-3912.538 2213)" fill="#1a1818"/>
      <circle id="Ellipse_6" data-name="Ellipse 6" cx="17.859" cy="17.859" r="17.859" transform="translate(-3910.396 2215.141)" fill="#fff"/>
      <circle id="Ellipse_7" data-name="Ellipse 7" cx="16.163" cy="16.163" r="16.163" transform="translate(-3908.701 2216.837)" fill="#1a1818"/>
      <path id="Path_168" data-name="Path 168" d="M52.19,33.283l-3.8,8.328s-9.795.345-11.866,8.717a10.35,10.35,0,0,1,.949-10.788S41.941,33.046,52.19,33.283Z" transform="translate(-3941.836 2185.05)" fill="#fe0"/>
      <path id="Path_169" data-name="Path 169" d="M61.745,42.163c0-.129,3.5-7.832,3.5-7.832s14,17.692-1.741,30.184l-2.5.108s13.139-9.256,4.6-24.337L64.517,42.31Z" transform="translate(-3954.164 2184.541)" fill="#00a1ed"/>
      <path id="Path_170" data-name="Path 170" d="M45.461,53.206s-6.92,1.618-6.6,7.7c0,0,10.162,13.981,26.861,1.23C65.726,62.138,43.642,68.481,45.461,53.206Z" transform="translate(-3943.485 2175.44)" fill="#e0007a"/>
    </g>
    <g id="Group_15" data-name="Group 15" transform="translate(80.531 -40)">
      <path id="Path_110" data-name="Path 110" d="M6.375,121.235a1.723,1.723,0,0,1,.067-.48,1.83,1.83,0,0,1,.188-.435,1.89,1.89,0,0,1,.289-.371,1.789,1.789,0,0,1,.374-.288,1.852,1.852,0,0,1,.438-.183,1.828,1.828,0,0,1,.486-.064,1.857,1.857,0,0,1,.723.147,1.816,1.816,0,0,1,.97.974,1.887,1.887,0,0,1,0,1.424,1.86,1.86,0,0,1-.388.591,1.84,1.84,0,0,1-.582.4,1.816,1.816,0,0,1-1.438,0,1.879,1.879,0,0,1-.588-.4,1.918,1.918,0,0,1-.4-.593A1.743,1.743,0,0,1,6.375,121.235Zm1.242-3.326a.548.548,0,0,1,.391.16.573.573,0,0,1,.12.178.63.63,0,0,1,.052.225.572.572,0,0,1-.041.23.562.562,0,0,1-.124.188.616.616,0,0,1-.186.127.515.515,0,0,1-.225.044.547.547,0,0,1-.407-.182.592.592,0,0,1-.116-.2.568.568,0,0,1-.028-.246.636.636,0,0,1,.06-.207.564.564,0,0,1,.122-.167.579.579,0,0,1,.172-.111A.534.534,0,0,1,7.617,117.909Zm.629,4.218a.839.839,0,0,0,.36-.089.909.909,0,0,0,.278-.216.893.893,0,0,0,.174-.3.87.87,0,0,0,.045-.35.988.988,0,0,0-.1-.31.938.938,0,0,0-.186-.256.879.879,0,0,0-.26-.174.784.784,0,0,0-.316-.064.83.83,0,0,0-.352.069.918.918,0,0,0-.549.845.793.793,0,0,0,.074.34.876.876,0,0,0,.2.274.916.916,0,0,0,.288.18A.8.8,0,0,0,8.246,122.127Zm.695-4.212a.551.551,0,0,1,.391.16.581.581,0,0,1,.121.178.636.636,0,0,1,.051.225.564.564,0,0,1-.041.23.553.553,0,0,1-.123.187.611.611,0,0,1-.186.127.521.521,0,0,1-.225.044.544.544,0,0,1-.406-.182.6.6,0,0,1-.116-.2.56.56,0,0,1-.028-.246.649.649,0,0,1,.059-.207.566.566,0,0,1,.294-.278A.535.535,0,0,1,8.941,117.915Z" transform="translate(96.466 12.561)" fill="#1a1818"/>
      <path id="Path_111" data-name="Path 111" d="M14.01,124.1l.094-.348q.044-.194.072-.379a5.644,5.644,0,0,0,.033-.729c-.007-.117-.016-.234-.026-.354l-.156-.7a1.948,1.948,0,0,0-.111-.339,3.393,3.393,0,0,0-.164-.33h1.1a3.78,3.78,0,0,1,.216.624,5.784,5.784,0,0,1,.122.649,4.268,4.268,0,0,1,.036.664,5.448,5.448,0,0,1-.058.676h.592a.225.225,0,0,0-.152.044.15.15,0,0,0-.048.116v.648a.134.134,0,0,0,.048.113.331.331,0,0,0,.152.053h-.807l-.2.454-.244.441-.316.454-.4.46-.814-.641.316-.375.238-.316.2-.278.156-.282.116-.316Z" transform="translate(93.387 11.16)" fill="#1a1818"/>
      <path id="Path_112" data-name="Path 112" d="M21.3,121.575h.426a.218.218,0,0,0-.149.042.154.154,0,0,0-.045.117v.654a.135.135,0,0,0,.045.111.3.3,0,0,0,.149.048H17.651a.158.158,0,0,1-.1-.062.185.185,0,0,1-.033-.109v-.626a.208.208,0,0,1,.036-.127.136.136,0,0,1,.117-.049h2.055l.3-.062a.83.83,0,0,0,.145-.078,1.161,1.161,0,0,0,.114-.088.615.615,0,0,0,.094-.125,1.424,1.424,0,0,0,.078-.156.809.809,0,0,0,.05-.164.873.873,0,0,0,.015-.158,1.015,1.015,0,0,0-.015-.183.82.82,0,0,0-.05-.164l-.172-.281-.26-.172-.3-.057H17.867v-.964l1.567-2.2.792.576-1.158,1.621h.66a2.363,2.363,0,0,1,.373.028,1.5,1.5,0,0,1,.334.094,1.449,1.449,0,0,1,.31.158,1.609,1.609,0,0,1,.25.208,1.494,1.494,0,0,1,.211.249,1.849,1.849,0,0,1,.158.284,1.724,1.724,0,0,1,.116.361,2,2,0,0,1,.034.374,2.14,2.14,0,0,1-.034.393,1.542,1.542,0,0,1-.116.355Z" transform="translate(91.273 13.112)" fill="#1a1818"/>
      <path id="Path_113" data-name="Path 113" d="M24.85,123.106a.215.215,0,0,1-.149-.042.154.154,0,0,1-.045-.117v-.654a.179.179,0,0,1,.027-.111.163.163,0,0,1,.089-.049h.957v-2.625h.97v2.625h.836a.218.218,0,0,0-.148.041.151.151,0,0,0-.045.119v.654a.132.132,0,0,0,.045.111.3.3,0,0,0,.148.049Zm.629-5.191a.548.548,0,0,1,.391.159.579.579,0,0,1,.12.178.636.636,0,0,1,.052.225.572.572,0,0,1-.041.23.555.555,0,0,1-.124.187.6.6,0,0,1-.186.127.523.523,0,0,1-.225.044.533.533,0,0,1-.225-.049.546.546,0,0,1-.182-.133.6.6,0,0,1-.116-.2.568.568,0,0,1-.028-.246.622.622,0,0,1,.059-.207.561.561,0,0,1,.294-.278A.534.534,0,0,1,25.479,117.915Zm1.324.006a.557.557,0,0,1,.216.042.546.546,0,0,1,.175.117.581.581,0,0,1,.121.178.636.636,0,0,1,.051.225.564.564,0,0,1-.041.23.559.559,0,0,1-.123.187.61.61,0,0,1-.186.127.529.529,0,0,1-.225.044.544.544,0,0,1-.406-.182.6.6,0,0,1-.116-.2.56.56,0,0,1-.028-.246.649.649,0,0,1,.059-.207.568.568,0,0,1,.122-.168.587.587,0,0,1,.172-.111A.544.544,0,0,1,26.8,117.921Z" transform="translate(87.947 12.558)" fill="#1a1818"/>
      <path id="Path_114" data-name="Path 114" d="M29.526,124.489a.214.214,0,0,1-.148-.042.151.151,0,0,1-.045-.117v-.654a.179.179,0,0,1,.027-.111.163.163,0,0,1,.089-.049h.957v-2.625h.97v2.625h.836a.224.224,0,0,0-.149.041.153.153,0,0,0-.045.119v.654a.135.135,0,0,0,.045.111.3.3,0,0,0,.149.048Zm1.327.532a.539.539,0,0,1,.213.042.541.541,0,0,1,.294.291.639.639,0,0,1,.05.223.552.552,0,0,1-.041.229.568.568,0,0,1-.3.311.518.518,0,0,1-.224.042.532.532,0,0,1-.224-.048.55.55,0,0,1-.294-.327.566.566,0,0,1-.027-.244.595.595,0,0,1,.18-.367.545.545,0,0,1,.169-.111A.523.523,0,0,1,30.853,125.022Z" transform="translate(85.769 11.171)" fill="#1a1818"/>
      <path id="Path_115" data-name="Path 115" d="M34.19,124.454a.22.22,0,0,1-.147-.041.163.163,0,0,1-.047-.131v-.626c0-.114.065-.172.194-.172h.585l-.144-.4c-.011-.069-.021-.142-.03-.219a1.893,1.893,0,0,1-.014-.234,1.874,1.874,0,0,1,.033-.363,2.2,2.2,0,0,1,.1-.335c.052-.108.108-.212.167-.311a2.053,2.053,0,0,1,.208-.286q.135-.113.274-.21a1.969,1.969,0,0,1,.3-.172,1.465,1.465,0,0,1,.346-.1,2.486,2.486,0,0,1,.748,0,1.365,1.365,0,0,1,.34.1,2.027,2.027,0,0,1,.3.166,1.706,1.706,0,0,1,.261.216c.077.092.15.187.219.286a2.029,2.029,0,0,1,.178.311,1.506,1.506,0,0,1,.107.346,2.144,2.144,0,0,1,.031.374,2.013,2.013,0,0,1-.031.354,1.4,1.4,0,0,1-.107.338,1.741,1.741,0,0,1-.178.313,2.786,2.786,0,0,1-.219.269,1.71,1.71,0,0,1-.261.216,2.026,2.026,0,0,1-.3.166,1.68,1.68,0,0,1-.713.151ZM36.4,121.8a.755.755,0,0,0-.313.059.819.819,0,0,0-.258.174.87.87,0,0,0-.178.26.791.791,0,0,0-.07.315.763.763,0,0,0,.055.322.832.832,0,0,0,.169.264.792.792,0,0,0,.254.18.784.784,0,0,0,.311.069.718.718,0,0,0,.327-.062.839.839,0,0,0,.438-.463.816.816,0,0,0,.055-.329.834.834,0,0,0-.069-.3.808.808,0,0,0-.416-.418A.781.781,0,0,0,36.4,121.8Z" transform="translate(83.595 11.204)" fill="#1a1818"/>
      <path id="Path_116" data-name="Path 116" d="M48.74,124.357a1.944,1.944,0,0,1-.172.265,2.383,2.383,0,0,1-.2.23,2.526,2.526,0,0,1-.252.221,2.179,2.179,0,0,1-.268.177q-.138.075-.275.135a2.175,2.175,0,0,1-.3.1l-.654.1-.657-.1a2.438,2.438,0,0,1-.315-.1,2.743,2.743,0,0,1-.283-.135,2,2,0,0,1-.264-.177,1.533,1.533,0,0,1-.23-.221,1.706,1.706,0,0,1-.208-.23,2.322,2.322,0,0,1-.174-.265,1.881,1.881,0,0,1-.26-.576,2.211,2.211,0,0,1-.061-.335,3.25,3.25,0,0,1-.018-.344,3.062,3.062,0,0,1,.018-.327,2.041,2.041,0,0,1,.061-.327,1.859,1.859,0,0,1,.117-.325,2.331,2.331,0,0,1,.164-.294q.091-.135.194-.266a2.728,2.728,0,0,1,.222-.25,2.342,2.342,0,0,1,.255-.221,1.671,1.671,0,0,1,.3-.177l.144-.066.375.823-.059.035a1.234,1.234,0,0,0-.18.108,1.72,1.72,0,0,0-.158.13l-.256.325-.16.351-.057.419a2.049,2.049,0,0,0,.023.317,1.824,1.824,0,0,0,.067.28,2.025,2.025,0,0,0,.3.482,1.746,1.746,0,0,0,.221.182,2.731,2.731,0,0,0,.255.156,2.239,2.239,0,0,0,.285.072,1.705,1.705,0,0,0,.313.028,1.671,1.671,0,0,0,.311-.028,2.394,2.394,0,0,0,.287-.072,2.976,2.976,0,0,0,.264-.139.993.993,0,0,0,.23-.186,2.172,2.172,0,0,0,.151-.19,1.582,1.582,0,0,0,.131-.227,1.163,1.163,0,0,0,.091-.247,2.212,2.212,0,0,0,.047-.263V120.85h.97V123.1c0,.119,0,.233-.014.344a1.675,1.675,0,0,1-.065.335,1.545,1.545,0,0,1-.114.3Q48.816,124.22,48.74,124.357Zm-1.68-3.5a.545.545,0,0,1,.391.16.575.575,0,0,1,.121.178.641.641,0,0,1,.051.225.563.563,0,0,1-.041.23.569.569,0,0,1-.123.188.619.619,0,0,1-.186.127.514.514,0,0,1-.225.044.547.547,0,0,1-.407-.182.591.591,0,0,1-.115-.2.56.56,0,0,1-.028-.246.649.649,0,0,1,.059-.207.566.566,0,0,1,.122-.167.577.577,0,0,1,.172-.111A.535.535,0,0,1,47.06,120.86Z" transform="translate(78.864 11.19)" fill="#1a1818"/>
      <path id="Path_117" data-name="Path 117" d="M55.928,118.172v5.047h-.973v-5.047Z" transform="translate(73.829 12.438)" fill="#1a1818"/>
      <path id="Path_118" data-name="Path 118" d="M59.809,125.594l.56-.626q.11-.147.208-.3c.066-.106.125-.205.18-.3l-.476.057h-.113q-.169-.016-.346-.044a2.512,2.512,0,0,1-.339-.079,2.135,2.135,0,0,1-.31-.148,1.207,1.207,0,0,1-.25-.2,1.566,1.566,0,0,1-.252-.284,1.293,1.293,0,0,1-.158-.33,1.809,1.809,0,0,1-.12-.355,1.85,1.85,0,0,1-.039-.4l.072-.491a1.868,1.868,0,0,1,.082-.227,2.052,2.052,0,0,1,.106-.211l.288-.366.36-.281.46-.194.5-.066h.057l.619.088a1.237,1.237,0,0,1,.332.127,1.314,1.314,0,0,1,.266.2,2.029,2.029,0,0,1,.205.217,1.591,1.591,0,0,1,.17.258,2.45,2.45,0,0,1,.144.317,1.31,1.31,0,0,1,.078.352l.038.5-.038.648h.31a.178.178,0,0,0-.135.049.172.172,0,0,0-.046.123v.632a.174.174,0,0,0,.031.111.186.186,0,0,0,.113.055h-.554l-.444.863q-.153.235-.335.471c-.121.158-.256.319-.407.486Zm.842-2.159.422-.072.06-.426-.06-.35c-.01-.067-.021-.131-.033-.192a.454.454,0,0,0-.067-.168l-.178-.26a.582.582,0,0,0-.26-.172l-.31-.066-.354.066a.625.625,0,0,0-.142.075c-.041.029-.082.061-.124.1l-.15.278-.072.341a.876.876,0,0,0,.019.183.966.966,0,0,0,.053.167.791.791,0,0,0,.089.156.446.446,0,0,0,.143.125.377.377,0,0,0,.1.08.394.394,0,0,0,.133.042l.326.072.25.022Z" transform="translate(72.245 11.236)" fill="#1a1818"/>
      <path id="Path_119" data-name="Path 119" d="M65.427,123.291a.218.218,0,0,1-.155-.044.148.148,0,0,1-.045-.113v-.657a.148.148,0,0,1,.045-.114.224.224,0,0,1,.155-.042h.51v-4h.985v4.972Z" transform="translate(69.042 12.37)" fill="#1a1818"/>
      <path id="Path_120" data-name="Path 120" d="M70.253,113.685a.638.638,0,0,1,.322-.17,1.09,1.09,0,0,1,.382-.011,1.315,1.315,0,0,1,.375.114,1.149,1.149,0,0,1,.3.2l.066.059-.37.516-.091-.106a.594.594,0,0,0-.174-.147.432.432,0,0,0-.211-.05l-.169.044-.128.116-.094.122-.015.182.015.144.094.125.194.135.279.05h.67v.6H69.346v-.6H70l-.106-.272a.609.609,0,0,1-.033-.108.667.667,0,0,1-.014-.146l.069-.369c.029-.054.061-.106.094-.155a.979.979,0,0,1,.116-.139Zm.86,2.325v5.031h-.97V116.01Z" transform="translate(67.122 14.619)" fill="#1a1818"/>
      <path id="Path_121" data-name="Path 121" d="M79.9,122.132a.221.221,0,0,0-.148.041.151.151,0,0,0-.045.119v.654a.133.133,0,0,0,.045.111.283.283,0,0,0,.148.045H76.066v-.977a2.93,2.93,0,0,1,.132-.607,3.372,3.372,0,0,1,.26-.593,3.664,3.664,0,0,1,.369-.541,3.133,3.133,0,0,1,.459-.456,2.646,2.646,0,0,1,.533-.335,2.059,2.059,0,0,1,.591-.178,1.958,1.958,0,0,1,.632.016,2.1,2.1,0,0,1,.654.244v2.456Zm-1.164-1.665a1.045,1.045,0,0,0-.433.027,1.166,1.166,0,0,0-.366.18,1.453,1.453,0,0,0-.3.294,2.35,2.35,0,0,0-.23.368,2.726,2.726,0,0,0-.164.4,2.857,2.857,0,0,0-.1.394h1.589Zm-.96-2.547a.551.551,0,0,1,.391.16.581.581,0,0,1,.121.178.635.635,0,0,1,.051.225.566.566,0,0,1-.164.418.611.611,0,0,1-.186.127.521.521,0,0,1-.225.044.543.543,0,0,1-.225-.049.551.551,0,0,1-.182-.133.6.6,0,0,1-.115-.2.56.56,0,0,1-.028-.246.649.649,0,0,1,.059-.207.566.566,0,0,1,.294-.278A.535.535,0,0,1,77.775,117.92Zm1.323.006a.555.555,0,0,1,.216.042.548.548,0,0,1,.176.117.58.58,0,0,1,.12.178.636.636,0,0,1,.052.225.574.574,0,0,1-.041.23.566.566,0,0,1-.124.187.6.6,0,0,1-.186.127.515.515,0,0,1-.225.044.544.544,0,0,1-.407-.181.6.6,0,0,1-.116-.2.565.565,0,0,1-.028-.245.636.636,0,0,1,.06-.207.567.567,0,0,1,.122-.168.572.572,0,0,1,.172-.111A.544.544,0,0,1,79.1,117.926Z" transform="translate(63.991 12.556)" fill="#1a1818"/>
      <path id="Path_122" data-name="Path 122" d="M86.436,121.425a1.476,1.476,0,0,1-.366.582,1.239,1.239,0,0,1-.25.228,2.488,2.488,0,0,1-.31.182,1.967,1.967,0,0,1-.335.1,1.93,1.93,0,0,1-.373.034H82.725a.158.158,0,0,1-.1-.062.185.185,0,0,1-.033-.109v-.626a.208.208,0,0,1,.036-.127.136.136,0,0,1,.117-.049H84.8l.3-.062a.83.83,0,0,0,.145-.078,1.1,1.1,0,0,0,.114-.088.73.73,0,0,0,.092-.125,1.2,1.2,0,0,0,.08-.156.777.777,0,0,0,.05-.164.827.827,0,0,0,.015-.158.968.968,0,0,0-.015-.183.786.786,0,0,0-.05-.164l-.172-.281-.26-.172-.3-.057H82.941v-.964l1.568-2.2.791.576-1.158,1.621h.66a2.358,2.358,0,0,1,.373.028,1.511,1.511,0,0,1,.335.094,1.445,1.445,0,0,1,.31.158,1.614,1.614,0,0,1,.25.208,1.516,1.516,0,0,1,.211.249,1.667,1.667,0,0,1,.155.284,1.764,1.764,0,0,1,.117.361,1.871,1.871,0,0,1,.036.374,2,2,0,0,1-.036.393A1.574,1.574,0,0,1,86.436,121.425Z" transform="translate(60.949 13.112)" fill="#1a1818"/>
      <path id="Path_123" data-name="Path 123" d="M90.8,124.1l.094-.348q.044-.194.072-.379a5.644,5.644,0,0,0,.033-.729c-.007-.117-.016-.234-.026-.354l-.156-.7a1.948,1.948,0,0,0-.111-.339,3.392,3.392,0,0,0-.164-.33h1.1a3.827,3.827,0,0,1,.216.624,5.786,5.786,0,0,1,.122.649,4.268,4.268,0,0,1,.036.664,5.448,5.448,0,0,1-.058.676h.592a.223.223,0,0,0-.152.044.148.148,0,0,0-.049.116v.648a.133.133,0,0,0,.049.113.326.326,0,0,0,.152.053h-.807l-.2.454-.244.441-.316.454-.4.46-.814-.641.316-.375.238-.316.2-.278.156-.282.116-.316Z" transform="translate(57.605 11.16)" fill="#1a1818"/>
      <path id="Path_124" data-name="Path 124" d="M100.167,121.793a1.329,1.329,0,0,1-.231.194,1.733,1.733,0,0,1-.266.144.99.99,0,0,1-.293.107,1.685,1.685,0,0,1-.327.031,1.375,1.375,0,0,1-.273-.028,1.35,1.35,0,0,1-.28-.088,1.434,1.434,0,0,1-.242-.135c-.072-.05-.144-.1-.217-.159a2.346,2.346,0,0,1-.221.159,1.772,1.772,0,0,1-.255.135,1.353,1.353,0,0,1-.554.116,1.385,1.385,0,0,1-.266-.025,1.535,1.535,0,0,1-.25-.069q-.119-.05-.225-.106a2.166,2.166,0,0,1-.216-.131.709.709,0,0,1-.1.084.652.652,0,0,1-.136.072l-.316.059H94.438a.187.187,0,0,1-.133-.042.151.151,0,0,1-.045-.117v-.632a.159.159,0,0,1,.178-.182h.438a.674.674,0,0,0,.147-.015.313.313,0,0,0,.113-.047l.182-.16.122-.238.034-.282v-1.883h.973v2.165a.309.309,0,0,0,.014.091c.009.031.019.061.03.091l.122.178a.553.553,0,0,0,.291.15.537.537,0,0,0,.294-.032.574.574,0,0,0,.238-.184.642.642,0,0,0,.125-.316v-2.144h.979V120.7a.578.578,0,0,0,.088.308.505.505,0,0,0,.2.177.524.524,0,0,0,.252.052.579.579,0,0,0,.252-.066.554.554,0,0,0,.2-.18.539.539,0,0,0,.088-.291v-2.144h.97v2.225a1.317,1.317,0,0,1-.028.269,2.512,2.512,0,0,1-.072.269.816.816,0,0,1-.056.135,1.174,1.174,0,0,1-.077.127,1.2,1.2,0,0,1-.089.114C100.23,121.728,100.2,121.761,100.167,121.793ZM97.4,117.009a.547.547,0,0,1,.216.042.539.539,0,0,1,.175.117.588.588,0,0,1,.121.178.636.636,0,0,1,.052.225.572.572,0,0,1-.041.23.553.553,0,0,1-.123.188.619.619,0,0,1-.186.127.521.521,0,0,1-.225.044.53.53,0,0,1-.225-.049.541.541,0,0,1-.182-.133.592.592,0,0,1-.116-.2.568.568,0,0,1-.028-.246.636.636,0,0,1,.06-.207.555.555,0,0,1,.122-.167.577.577,0,0,1,.172-.111A.535.535,0,0,1,97.4,117.009Zm.679-1.133a.548.548,0,0,1,.391.159.57.57,0,0,1,.12.178.636.636,0,0,1,.052.225.563.563,0,0,1-.041.23.555.555,0,0,1-.124.187.6.6,0,0,1-.186.127.523.523,0,0,1-.225.044.547.547,0,0,1-.407-.182.6.6,0,0,1-.116-.2.568.568,0,0,1-.028-.246.623.623,0,0,1,.059-.207.566.566,0,0,1,.122-.167.56.56,0,0,1,.172-.111A.534.534,0,0,1,98.074,115.876Zm.645,1.139a.558.558,0,0,1,.216.042.546.546,0,0,1,.175.117.57.57,0,0,1,.12.178.636.636,0,0,1,.052.225.564.564,0,0,1-.164.418.6.6,0,0,1-.186.127.531.531,0,0,1-.225.044.547.547,0,0,1-.407-.182.6.6,0,0,1-.116-.2.568.568,0,0,1-.028-.246.623.623,0,0,1,.059-.207.566.566,0,0,1,.294-.278A.534.534,0,0,1,98.718,117.015Z" transform="translate(55.513 13.508)" fill="#1a1818"/>
    </g>
  </g>
</svg>
