<svg width='24' height='24' viewBox='0 0 24 24' xmlns='http://www.w3.org/2000/svg' xmlns:xlink='http://www.w3.org/1999/xlink'><rect width='24' height='24' stroke='none' fill='#000000' opacity='0'/>


<g transform="matrix(0.83 0 0 0.83 12 12)" >
<g style="" >
<g transform="matrix(1 0 0 1 -2.64 -5.71)" >
<path style="stroke: rgb(0,0,0); stroke-width: 1; stroke-dasharray: none; stroke-linecap: round; stroke-dashoffset: 0; stroke-linejoin: round; stroke-miterlimit: 4; fill: none; fill-rule: nonzero; opacity: 1;" transform=" translate(-9.36, -6.29)" d="M 3.03198 7.59999 C 3.86259 6.76882 4.84884 6.10947 5.93437 5.65961 C 7.0199 5.20975 8.18343 4.97821 9.35848 4.97821 C 10.5335 4.97821 11.6971 5.20975 12.7826 5.65961 C 13.8681 6.10947 14.8544 6.76882 15.685 7.59999" stroke-linecap="round" />
</g>
<g transform="matrix(1 0 0 1 -2.64 -9.67)" >
<path style="stroke: rgb(0,0,0); stroke-width: 1; stroke-dasharray: none; stroke-linecap: round; stroke-dashoffset: 0; stroke-linejoin: round; stroke-miterlimit: 4; fill: none; fill-rule: nonzero; opacity: 1;" transform=" translate(-9.36, -2.33)" d="M 18.216 4.16899 C 17.0528 3.00573 15.6718 2.08298 14.1519 1.45343 C 12.6321 0.823875 11.0031 0.499847 9.358 0.499847 C 7.71291 0.499847 6.08394 0.823875 4.56408 1.45343 C 3.04422 2.08298 1.66324 3.00573 0.5 4.16899" stroke-linecap="round" />
</g>
<g transform="matrix(1 0 0 1 -2.64 -1.77)" >
<path style="stroke: rgb(0,0,0); stroke-width: 1; stroke-dasharray: none; stroke-linecap: round; stroke-dashoffset: 0; stroke-linejoin: round; stroke-miterlimit: 4; fill: none; fill-rule: nonzero; opacity: 1;" transform=" translate(-9.36, -10.23)" d="M 5.56201 11.02 C 6.56903 10.0133 7.93462 9.44781 9.35851 9.44781 C 10.7824 9.44781 12.148 10.0133 13.155 11.02" stroke-linecap="round" />
</g>
<g transform="matrix(1 0 0 1 -2.64 -5.71)" >
<path style="stroke: rgb(0,0,0); stroke-width: 1; stroke-dasharray: none; stroke-linecap: round; stroke-dashoffset: 0; stroke-linejoin: round; stroke-miterlimit: 4; fill: none; fill-rule: nonzero; opacity: 1;" transform=" translate(-9.36, -6.29)" d="M 15.685 7.59999 C 14.8544 6.76882 13.8681 6.10947 12.7826 5.65961 C 11.6971 5.20975 10.5335 4.97821 9.35848 4.97821 C 8.18343 4.97821 7.0199 5.20975 5.93437 5.65961 C 4.84884 6.10947 3.86259 6.76882 3.03198 7.59999" stroke-linecap="round" />
</g>
<g transform="matrix(1 0 0 1 -2.64 -1.77)" >
<path style="stroke: rgb(0,0,0); stroke-width: 1; stroke-dasharray: none; stroke-linecap: round; stroke-dashoffset: 0; stroke-linejoin: round; stroke-miterlimit: 4; fill: none; fill-rule: nonzero; opacity: 1;" transform=" translate(-9.36, -10.23)" d="M 13.155 11.02 C 12.148 10.0133 10.7824 9.44781 9.35851 9.44781 C 7.93462 9.44781 6.56903 10.0133 5.56201 11.02" stroke-linecap="round" />
</g>
<g transform="matrix(1 0 0 1 -2.64 3.71)" >
<path style="stroke: rgb(0,0,0); stroke-width: 1; stroke-dasharray: none; stroke-linecap: round; stroke-dashoffset: 0; stroke-linejoin: round; stroke-miterlimit: 4; fill: none; fill-rule: nonzero; opacity: 1;" transform=" translate(-9.36, -15.71)" d="M 11.147 15.71 C 11.1472 16.0641 11.0424 16.4103 10.8458 16.7048 C 10.6492 16.9994 10.3696 17.2289 10.0425 17.3645 C 9.71536 17.5001 9.35537 17.5357 9.00805 17.4666 C 8.66073 17.3976 8.34169 17.2271 8.0913 16.9767 C 7.8409 16.7263 7.6704 16.4073 7.60136 16.06 C 7.53233 15.7126 7.56786 15.3526 7.70346 15.0255 C 7.83907 14.6984 8.06865 14.4189 8.36317 14.2222 C 8.65769 14.0256 9.0039 13.9208 9.35802 13.921 C 9.83249 13.921 10.2875 14.1095 10.623 14.445 C 10.9585 14.7805 11.147 15.2355 11.147 15.71 L 11.147 15.71 Z" stroke-linecap="round" />
</g>
<g transform="matrix(1 0 0 1 5.36 5)" >
<path style="stroke: rgb(0,0,0); stroke-width: 1; stroke-dasharray: none; stroke-linecap: round; stroke-dashoffset: 0; stroke-linejoin: round; stroke-miterlimit: 4; fill: none; fill-rule: nonzero; opacity: 1;" transform=" translate(-17.36, -17)" d="M 17.358 18.5 L 17.358 15.5" stroke-linecap="round" />
</g>
<g transform="matrix(1 0 0 1 5.36 5.75)" >
<path style="stroke: rgb(0,0,0); stroke-width: 1; stroke-dasharray: none; stroke-linecap: round; stroke-dashoffset: 0; stroke-linejoin: round; stroke-miterlimit: 4; fill: none; fill-rule: nonzero; opacity: 1;" transform=" translate(-17.36, -17.75)" d="M 18.2 12.5 C 18.1189 12.3482 17.9982 12.2213 17.8506 12.1328 C 17.703 12.0442 17.5341 11.9975 17.362 11.9975 C 17.1899 11.9975 17.021 12.0442 16.8734 12.1328 C 16.7259 12.2213 16.6051 12.3482 16.524 12.5 L 11.468 22.135 C 11.3933 22.2769 11.3569 22.4358 11.3623 22.5961 C 11.3678 22.7564 11.4149 22.9125 11.499 23.049 C 11.5842 23.1862 11.7031 23.2994 11.8443 23.3778 C 11.9855 23.4563 12.1445 23.4973 12.306 23.497 L 22.414 23.497 C 22.5755 23.4973 22.7345 23.4563 22.8757 23.3778 C 23.0169 23.2994 23.1358 23.1862 23.221 23.049 C 23.3051 22.9125 23.3522 22.7564 23.3577 22.5961 C 23.3631 22.4358 23.3267 22.2769 23.252 22.135 L 18.2 12.5 Z" stroke-linecap="round" />
</g>
<g transform="matrix(1 0 0 1 5.23 8.75)" >
<path style="stroke: rgb(0,0,0); stroke-width: 1; stroke-dasharray: none; stroke-linecap: butt; stroke-dashoffset: 0; stroke-linejoin: miter; stroke-miterlimit: 4; fill: none; fill-rule: nonzero; opacity: 1;" transform=" translate(-17.23, -20.75)" d="M 17.358 21 C 17.2199 21 17.108 20.8881 17.108 20.75 C 17.108 20.6119 17.2199 20.5 17.358 20.5" stroke-linecap="round" />
</g>
<g transform="matrix(1 0 0 1 5.48 8.75)" >
<path style="stroke: rgb(0,0,0); stroke-width: 1; stroke-dasharray: none; stroke-linecap: butt; stroke-dashoffset: 0; stroke-linejoin: miter; stroke-miterlimit: 4; fill: none; fill-rule: nonzero; opacity: 1;" transform=" translate(-17.48, -20.75)" d="M 17.358 21 C 17.496 21 17.608 20.8881 17.608 20.75 C 17.608 20.6119 17.496 20.5 17.358 20.5" stroke-linecap="round" />
</g>
</g>
</g>
</svg>