<svg xmlns="http://www.w3.org/2000/svg" width="233.857" height="324.996" viewBox="0 0 233.857 324.996">
  <g id="Group_30" data-name="Group 30" transform="translate(-6 -22.99)">
    <g id="Group_6" data-name="Group 6" transform="translate(6 233.448)">
      <path id="Path_110" data-name="Path 110" d="M6.375,132.392a7.5,7.5,0,0,1,.293-2.091,7.971,7.971,0,0,1,.819-1.9,8.231,8.231,0,0,1,1.26-1.614,7.792,7.792,0,0,1,1.628-1.253,8.067,8.067,0,0,1,1.907-.8,7.961,7.961,0,0,1,2.118-.279,8.084,8.084,0,0,1,3.149.64,7.907,7.907,0,0,1,4.223,4.239,8.218,8.218,0,0,1,.014,6.2,8.1,8.1,0,0,1-1.691,2.574,8.014,8.014,0,0,1-2.532,1.751,7.907,7.907,0,0,1-6.262,0,8.184,8.184,0,0,1-2.56-1.758A8.354,8.354,0,0,1,7,135.527,7.592,7.592,0,0,1,6.375,132.392Zm5.409-14.483a2.385,2.385,0,0,1,1.7.7,2.5,2.5,0,0,1,.523.777,2.745,2.745,0,0,1,.226.979,2.49,2.49,0,0,1-.177,1,2.449,2.449,0,0,1-.54.819,2.684,2.684,0,0,1-.809.551,2.242,2.242,0,0,1-.981.191,2.381,2.381,0,0,1-1.772-.791,2.577,2.577,0,0,1-.5-.865,2.474,2.474,0,0,1-.123-1.07,2.77,2.77,0,0,1,.26-.9,2.456,2.456,0,0,1,.53-.728,2.522,2.522,0,0,1,.751-.484A2.325,2.325,0,0,1,11.784,117.909Zm2.739,18.366a3.653,3.653,0,0,0,1.567-.388,3.957,3.957,0,0,0,1.212-.939,3.89,3.89,0,0,0,.756-1.316,3.789,3.789,0,0,0,.2-1.525,4.3,4.3,0,0,0-.414-1.349,4.086,4.086,0,0,0-.812-1.116,3.828,3.828,0,0,0-1.13-.758,3.412,3.412,0,0,0-1.377-.279,3.615,3.615,0,0,0-1.532.3,4,4,0,0,0-2.393,3.679,3.452,3.452,0,0,0,.321,1.479,3.816,3.816,0,0,0,.865,1.193,3.99,3.99,0,0,0,1.253.784A3.493,3.493,0,0,0,14.524,136.275Zm3.025-18.341a2.4,2.4,0,0,1,1.7.7,2.53,2.53,0,0,1,.526.777,2.767,2.767,0,0,1,.223.981,2.458,2.458,0,0,1-.177,1,2.41,2.41,0,0,1-.537.816,2.659,2.659,0,0,1-.812.553,2.269,2.269,0,0,1-.981.191,2.371,2.371,0,0,1-1.77-.791,2.624,2.624,0,0,1-.5-.865,2.439,2.439,0,0,1-.123-1.07,2.825,2.825,0,0,1,.258-.9,2.466,2.466,0,0,1,1.281-1.212A2.329,2.329,0,0,1,17.549,117.935Z" transform="translate(-5.503 -107.638)" fill="#1a1818"/>
      <path id="Path_111" data-name="Path 111" d="M17.454,134.772l.409-1.514q.192-.844.314-1.649a24.577,24.577,0,0,0,.142-3.174c-.03-.509-.07-1.021-.114-1.539l-.681-3.067a8.481,8.481,0,0,0-.484-1.477,14.769,14.769,0,0,0-.716-1.437h4.8a16.459,16.459,0,0,1,.942,2.718,25.189,25.189,0,0,1,.53,2.825,18.587,18.587,0,0,1,.158,2.891,23.726,23.726,0,0,1-.253,2.942h2.577a.98.98,0,0,0-.663.191.651.651,0,0,0-.209.5v2.821a.584.584,0,0,0,.209.491,1.441,1.441,0,0,0,.663.23H21.556L20.7,138.5l-1.063,1.921L18.258,142.4l-1.73,2-3.544-2.793,1.377-1.635L15.4,138.6l.886-1.212.681-1.228.5-1.377Z" transform="translate(3.257 -103.653)" fill="#1a1818"/>
      <path id="Path_112" data-name="Path 112" d="M33.98,137.845h1.853a.948.948,0,0,0-.649.184.671.671,0,0,0-.2.512v2.849a.587.587,0,0,0,.2.484,1.308,1.308,0,0,0,.649.209H18.092a.69.69,0,0,1-.43-.272.807.807,0,0,1-.142-.477v-2.725a.9.9,0,0,1,.156-.551.592.592,0,0,1,.512-.212h8.951l1.323-.272a3.611,3.611,0,0,0,.633-.342,5.055,5.055,0,0,0,.5-.381,2.678,2.678,0,0,0,.409-.544,6.2,6.2,0,0,0,.34-.681,3.524,3.524,0,0,0,.219-.716,3.8,3.8,0,0,0,.067-.686,4.419,4.419,0,0,0-.067-.8,3.57,3.57,0,0,0-.219-.716l-.749-1.225-1.13-.749-1.323-.247H19.032v-4.2l6.825-9.565,3.449,2.507-5.042,7.058h2.874a10.291,10.291,0,0,1,1.623.123,6.527,6.527,0,0,1,1.456.409,6.308,6.308,0,0,1,1.351.688,7.006,7.006,0,0,1,1.088.9,6.506,6.506,0,0,1,.921,1.084,8.054,8.054,0,0,1,.688,1.235,7.506,7.506,0,0,1,.5,1.572,8.707,8.707,0,0,1,.149,1.63,9.319,9.319,0,0,1-.149,1.709,6.715,6.715,0,0,1-.5,1.546Z" transform="translate(9.269 -109.207)" fill="#1a1818"/>
      <path id="Path_113" data-name="Path 113" d="M25.5,140.518a.936.936,0,0,1-.649-.184.671.671,0,0,1-.2-.512v-2.846a.78.78,0,0,1,.116-.484.71.71,0,0,1,.388-.212h4.17V124.85h4.223v11.432h3.639a.951.951,0,0,0-.646.177.658.658,0,0,0-.2.519v2.846a.574.574,0,0,0,.2.484,1.288,1.288,0,0,0,.646.212Zm2.737-22.6a2.385,2.385,0,0,1,1.7.693,2.523,2.523,0,0,1,.523.777,2.769,2.769,0,0,1,.226.981,2.49,2.49,0,0,1-.177,1,2.416,2.416,0,0,1-.54.816,2.621,2.621,0,0,1-.809.553,2.276,2.276,0,0,1-.981.191,2.32,2.32,0,0,1-.981-.212,2.377,2.377,0,0,1-.791-.579,2.6,2.6,0,0,1-.5-.865,2.474,2.474,0,0,1-.121-1.07,2.711,2.711,0,0,1,.258-.9,2.444,2.444,0,0,1,1.281-1.212A2.324,2.324,0,0,1,28.24,117.915Zm5.765.026a2.426,2.426,0,0,1,.939.184,2.378,2.378,0,0,1,.763.512,2.53,2.53,0,0,1,.526.777,2.768,2.768,0,0,1,.223.981,2.458,2.458,0,0,1-.177,1,2.433,2.433,0,0,1-.537.816,2.658,2.658,0,0,1-.812.553,2.3,2.3,0,0,1-.981.191,2.371,2.371,0,0,1-1.77-.791,2.624,2.624,0,0,1-.5-.865,2.439,2.439,0,0,1-.123-1.07,2.825,2.825,0,0,1,.258-.9,2.473,2.473,0,0,1,.533-.73,2.556,2.556,0,0,1,.749-.484A2.371,2.371,0,0,1,34,117.941Z" transform="translate(18.728 -107.63)" fill="#1a1818"/>
      <path id="Path_114" data-name="Path 114" d="M30.176,136.56a.93.93,0,0,1-.646-.184.657.657,0,0,1-.2-.509v-2.849a.78.78,0,0,1,.116-.484.71.71,0,0,1,.388-.212h4.17V120.891h4.223v11.432h3.639a.975.975,0,0,0-.649.177.666.666,0,0,0-.2.519v2.849a.587.587,0,0,0,.2.484,1.308,1.308,0,0,0,.649.209Zm5.779,2.319a2.348,2.348,0,0,1,.926.184,2.355,2.355,0,0,1,1.281,1.267,2.781,2.781,0,0,1,.219.972,2.4,2.4,0,0,1-.179,1,2.475,2.475,0,0,1-1.328,1.356,2.255,2.255,0,0,1-.974.184,2.315,2.315,0,0,1-.974-.209,2.4,2.4,0,0,1-1.279-1.426,2.464,2.464,0,0,1-.116-1.063,2.59,2.59,0,0,1,.784-1.6,2.374,2.374,0,0,1,.735-.484A2.278,2.278,0,0,1,35.955,138.878Z" transform="translate(24.925 -103.685)" fill="#1a1818"/>
      <path id="Path_115" data-name="Path 115" d="M34.84,136.641a.959.959,0,0,1-.64-.179.711.711,0,0,1-.2-.572v-2.725c0-.5.281-.749.844-.749h2.549l-.626-1.758c-.047-.3-.091-.616-.13-.953a8.79,8.79,0,0,1,.081-2.6,9.572,9.572,0,0,1,.416-1.458c.226-.472.47-.923.728-1.356a8.941,8.941,0,0,1,.907-1.246q.586-.492,1.193-.914a8.574,8.574,0,0,1,1.314-.749,6.378,6.378,0,0,1,1.5-.435,10.827,10.827,0,0,1,3.258,0,5.944,5.944,0,0,1,1.479.435,8.826,8.826,0,0,1,1.328.723,7.432,7.432,0,0,1,1.137.939c.337.4.653.814.953,1.246a8.835,8.835,0,0,1,.777,1.356,6.56,6.56,0,0,1,.465,1.507,9.336,9.336,0,0,1,.135,1.628,8.768,8.768,0,0,1-.135,1.539,6.091,6.091,0,0,1-.465,1.472,7.582,7.582,0,0,1-.777,1.363,12.13,12.13,0,0,1-.953,1.17,7.447,7.447,0,0,1-1.137.942,8.822,8.822,0,0,1-1.328.721,7.316,7.316,0,0,1-3.107.656Zm9.606-11.555a3.286,3.286,0,0,0-1.363.258,3.566,3.566,0,0,0-1.123.756,3.788,3.788,0,0,0-.777,1.132,3.443,3.443,0,0,0-.307,1.37,3.321,3.321,0,0,0,.24,1.4,3.621,3.621,0,0,0,.735,1.151,3.45,3.45,0,0,0,1.1.784,3.415,3.415,0,0,0,1.356.3,3.126,3.126,0,0,0,1.423-.272,3.652,3.652,0,0,0,1.907-2.016,3.554,3.554,0,0,0,.24-1.432,3.632,3.632,0,0,0-.3-1.328,3.517,3.517,0,0,0-1.812-1.819A3.4,3.4,0,0,0,44.447,125.086Z" transform="translate(31.107 -103.778)" fill="#1a1818"/>
      <path id="Path_116" data-name="Path 116" d="M64.14,136.124a8.465,8.465,0,0,1-.749,1.153,10.375,10.375,0,0,1-.872,1,11,11,0,0,1-1.1.96,9.492,9.492,0,0,1-1.165.77q-.6.328-1.2.586a9.477,9.477,0,0,1-1.309.451l-2.849.435-2.86-.435a10.621,10.621,0,0,1-1.37-.451,11.943,11.943,0,0,1-1.232-.586,8.71,8.71,0,0,1-1.151-.77,6.673,6.673,0,0,1-1-.96,7.427,7.427,0,0,1-.907-1,10.109,10.109,0,0,1-.756-1.153,8.191,8.191,0,0,1-1.13-2.507,9.63,9.63,0,0,1-.265-1.458,14.153,14.153,0,0,1-.077-1.5,13.332,13.332,0,0,1,.077-1.423,8.885,8.885,0,0,1,.265-1.426A8.1,8.1,0,0,1,45,126.4a10.153,10.153,0,0,1,.714-1.281q.4-.586.846-1.158a11.882,11.882,0,0,1,.967-1.091,10.2,10.2,0,0,1,1.109-.96,7.276,7.276,0,0,1,1.3-.77l.626-.286,1.635,3.584-.258.151a5.374,5.374,0,0,0-.784.47,7.5,7.5,0,0,0-.688.565l-1.116,1.416-.7,1.528-.247,1.825a8.921,8.921,0,0,0,.1,1.381,7.943,7.943,0,0,0,.293,1.221,8.816,8.816,0,0,0,1.323,2.1,7.61,7.61,0,0,0,.96.791,11.9,11.9,0,0,0,1.109.681,9.745,9.745,0,0,0,1.239.314,7.426,7.426,0,0,0,1.363.121,7.277,7.277,0,0,0,1.356-.121,10.422,10.422,0,0,0,1.249-.314,12.967,12.967,0,0,0,1.151-.607,4.324,4.324,0,0,0,1-.809,9.463,9.463,0,0,0,.656-.826,6.89,6.89,0,0,0,.572-.988,5.066,5.066,0,0,0,.4-1.077,9.634,9.634,0,0,0,.2-1.144V120.85h4.223v9.811c0,.519-.021,1.016-.06,1.5a7.3,7.3,0,0,1-.281,1.458,6.728,6.728,0,0,1-.5,1.309Q64.467,135.526,64.14,136.124Zm-7.316-15.232a2.374,2.374,0,0,1,1.7.7,2.5,2.5,0,0,1,.526.777,2.794,2.794,0,0,1,.223.979,2.451,2.451,0,0,1-.177,1,2.479,2.479,0,0,1-.537.819,2.694,2.694,0,0,1-.812.551,2.236,2.236,0,0,1-.981.191A2.381,2.381,0,0,1,55,125.115a2.573,2.573,0,0,1-.5-.865,2.439,2.439,0,0,1-.123-1.07,2.825,2.825,0,0,1,.258-.9,2.463,2.463,0,0,1,.533-.728,2.511,2.511,0,0,1,.749-.484A2.328,2.328,0,0,1,56.824,120.892Z" transform="translate(44.566 -103.74)" fill="#1a1818"/>
      <path id="Path_117" data-name="Path 117" d="M59.192,118.172v21.98H54.955v-21.98Z" transform="translate(58.887 -107.289)" fill="#1a1818"/>
      <path id="Path_118" data-name="Path 118" d="M64.689,141.843l2.439-2.725q.478-.642.907-1.328c.286-.46.546-.893.784-1.3l-2.072.247h-.491q-.736-.07-1.507-.191a10.942,10.942,0,0,1-1.477-.342,9.3,9.3,0,0,1-1.349-.646,5.26,5.26,0,0,1-1.091-.851,6.821,6.821,0,0,1-1.1-1.235,5.633,5.633,0,0,1-.688-1.437,7.877,7.877,0,0,1-.523-1.546,8.058,8.058,0,0,1-.17-1.737l.312-2.139a8.137,8.137,0,0,1,.356-.988,8.934,8.934,0,0,1,.463-.919l1.253-1.6,1.567-1.226,2-.844,2.193-.286h.246l2.7.381a5.388,5.388,0,0,1,1.444.551,5.723,5.723,0,0,1,1.158.851,8.831,8.831,0,0,1,.893.946,6.93,6.93,0,0,1,.742,1.126,10.674,10.674,0,0,1,.628,1.381,5.706,5.706,0,0,1,.34,1.535l.165,2.165-.165,2.821H76a.777.777,0,0,0-.586.212.748.748,0,0,0-.2.537v2.753a.758.758,0,0,0,.135.484.811.811,0,0,0,.491.24H73.423l-1.935,3.76q-.666,1.022-1.458,2.051c-.528.686-1.116,1.391-1.772,2.118Zm3.665-9.4,1.839-.314.26-1.853-.26-1.525c-.044-.291-.093-.57-.142-.837a1.978,1.978,0,0,0-.293-.73l-.777-1.13a2.536,2.536,0,0,0-1.13-.749l-1.351-.286-1.539.286a2.721,2.721,0,0,0-.619.326c-.177.128-.358.267-.54.423l-.653,1.212-.314,1.486a3.815,3.815,0,0,0,.081.8,4.207,4.207,0,0,0,.233.728,3.444,3.444,0,0,0,.388.681,1.943,1.943,0,0,0,.621.546,1.643,1.643,0,0,0,.414.346,1.715,1.715,0,0,0,.579.184l1.419.314,1.088.1Z" transform="translate(63.393 -103.871)" fill="#1a1818"/>
      <path id="Path_119" data-name="Path 119" d="M66.1,139.969a.95.95,0,0,1-.674-.191.646.646,0,0,1-.2-.491v-2.86a.645.645,0,0,1,.2-.5.975.975,0,0,1,.674-.184H68.32V118.319h4.29v21.65Z" transform="translate(72.502 -107.094)" fill="#1a1818"/>
      <path id="Path_120" data-name="Path 120" d="M73.3,114.334a2.78,2.78,0,0,1,1.4-.742,4.749,4.749,0,0,1,1.663-.049,5.725,5.725,0,0,1,1.635.5,5,5,0,0,1,1.323.879l.286.258L78,117.426l-.4-.463a2.586,2.586,0,0,0-.756-.639,1.882,1.882,0,0,0-.919-.219l-.737.191-.558.5-.409.53-.067.791.067.626.409.546.844.586,1.214.219h2.916v2.616H69.346V120.1h2.832l-.463-1.186a2.649,2.649,0,0,1-.142-.47,2.906,2.906,0,0,1-.063-.635l.3-1.607c.128-.237.265-.46.409-.674a4.262,4.262,0,0,1,.5-.607Zm3.746,10.125v21.908H72.82V124.459Z" transform="translate(77.962 -113.492)" fill="#1a1818"/>
      <path id="Path_121" data-name="Path 121" d="M92.758,136.261a.964.964,0,0,0-.646.177.658.658,0,0,0-.2.519V139.8a.58.58,0,0,0,.2.484,1.233,1.233,0,0,0,.646.2H76.066v-4.253a12.755,12.755,0,0,1,.574-2.642,14.68,14.68,0,0,1,1.13-2.584,15.956,15.956,0,0,1,1.607-2.356,13.643,13.643,0,0,1,2-1.984A11.522,11.522,0,0,1,83.7,125.21a8.964,8.964,0,0,1,2.574-.777,8.525,8.525,0,0,1,2.753.07,9.135,9.135,0,0,1,2.846,1.063v10.695Zm-5.069-7.248a4.551,4.551,0,0,0-1.886.116,5.077,5.077,0,0,0-1.6.784,6.325,6.325,0,0,0-1.3,1.279,10.23,10.23,0,0,0-1,1.6,11.869,11.869,0,0,0-.714,1.751,12.444,12.444,0,0,0-.423,1.716h6.921ZM83.507,117.92a2.4,2.4,0,0,1,1.7.7,2.53,2.53,0,0,1,.526.777,2.767,2.767,0,0,1,.223.981,2.465,2.465,0,0,1-.714,1.819,2.659,2.659,0,0,1-.812.553,2.269,2.269,0,0,1-.981.191,2.364,2.364,0,0,1-.981-.212,2.4,2.4,0,0,1-.791-.579,2.619,2.619,0,0,1-.5-.865,2.439,2.439,0,0,1-.123-1.07,2.826,2.826,0,0,1,.258-.9,2.466,2.466,0,0,1,1.281-1.212A2.329,2.329,0,0,1,83.507,117.92Zm5.762.028a2.416,2.416,0,0,1,.939.184,2.388,2.388,0,0,1,.765.512,2.523,2.523,0,0,1,.523.777,2.769,2.769,0,0,1,.226.981,2.5,2.5,0,0,1-.177,1,2.462,2.462,0,0,1-.54.816,2.6,2.6,0,0,1-.809.551,2.242,2.242,0,0,1-.981.191,2.368,2.368,0,0,1-1.772-.788,2.611,2.611,0,0,1-.5-.867,2.459,2.459,0,0,1-.123-1.067,2.77,2.77,0,0,1,.26-.9,2.466,2.466,0,0,1,.53-.73,2.492,2.492,0,0,1,.751-.484A2.367,2.367,0,0,1,89.27,117.948Z" transform="translate(86.869 -107.623)" fill="#1a1818"/>
      <path id="Path_122" data-name="Path 122" d="M99.326,137.191a6.425,6.425,0,0,1-1.593,2.535,5.4,5.4,0,0,1-1.091.993,10.833,10.833,0,0,1-1.349.791,8.569,8.569,0,0,1-1.458.423,8.406,8.406,0,0,1-1.623.149H83.166a.69.69,0,0,1-.43-.272.807.807,0,0,1-.142-.477v-2.725a.9.9,0,0,1,.156-.551.592.592,0,0,1,.512-.212h8.951l1.323-.272a3.612,3.612,0,0,0,.633-.342,4.794,4.794,0,0,0,.5-.381,3.177,3.177,0,0,0,.4-.544,5.207,5.207,0,0,0,.346-.681,3.382,3.382,0,0,0,.219-.716,3.6,3.6,0,0,0,.067-.686,4.218,4.218,0,0,0-.067-.8,3.425,3.425,0,0,0-.219-.716l-.749-1.225-1.13-.749-1.323-.247H84.106v-4.2l6.828-9.565,3.446,2.507-5.042,7.058h2.874a10.269,10.269,0,0,1,1.623.123,6.581,6.581,0,0,1,1.458.409,6.29,6.29,0,0,1,1.349.688,7.026,7.026,0,0,1,1.091.9,6.6,6.6,0,0,1,.919,1.084,7.26,7.26,0,0,1,.674,1.235,7.682,7.682,0,0,1,.512,1.572,8.15,8.15,0,0,1,.156,1.63,8.727,8.727,0,0,1-.156,1.709A6.854,6.854,0,0,1,99.326,137.191Z" transform="translate(95.522 -109.207)" fill="#1a1818"/>
      <path id="Path_123" data-name="Path 123" d="M94.241,134.772l.409-1.514q.192-.844.314-1.649a24.575,24.575,0,0,0,.142-3.174c-.03-.509-.07-1.021-.114-1.539l-.681-3.067a8.479,8.479,0,0,0-.484-1.477,14.771,14.771,0,0,0-.716-1.437h4.8a16.664,16.664,0,0,1,.939,2.718,25.187,25.187,0,0,1,.53,2.825,18.586,18.586,0,0,1,.158,2.891,23.726,23.726,0,0,1-.253,2.942h2.577a.97.97,0,0,0-.66.191.645.645,0,0,0-.212.5v2.821a.579.579,0,0,0,.212.491,1.42,1.42,0,0,0,.66.23H98.343l-.858,1.977-1.063,1.921L95.045,142.4l-1.73,2-3.544-2.793,1.377-1.635,1.037-1.377.884-1.212.681-1.228.5-1.377Z" transform="translate(105.034 -103.653)" fill="#1a1818"/>
      <path id="Path_124" data-name="Path 124" d="M119.984,141.642a5.785,5.785,0,0,1-1.007.844,7.541,7.541,0,0,1-1.158.626,4.308,4.308,0,0,1-1.274.465,7.336,7.336,0,0,1-1.426.135,5.987,5.987,0,0,1-1.191-.123,5.88,5.88,0,0,1-1.221-.381,6.243,6.243,0,0,1-1.056-.586c-.314-.216-.628-.449-.946-.693a10.231,10.231,0,0,1-.96.693,7.715,7.715,0,0,1-1.112.586,5.892,5.892,0,0,1-2.411.5,6.032,6.032,0,0,1-1.158-.109,6.682,6.682,0,0,1-1.088-.3q-.52-.216-.981-.463a9.444,9.444,0,0,1-.942-.572,3.085,3.085,0,0,1-.442.367,2.837,2.837,0,0,1-.593.314l-1.377.258h-4.6a.813.813,0,0,1-.579-.184.657.657,0,0,1-.2-.509v-2.753a.692.692,0,0,1,.777-.791h1.907a2.933,2.933,0,0,0,.64-.067,1.363,1.363,0,0,0,.491-.2l.791-.7.533-1.035.149-1.228v-8.2h4.237v9.43a1.345,1.345,0,0,0,.063.4c.04.135.084.267.13.4l.53.777a2.41,2.41,0,0,0,1.267.653,2.336,2.336,0,0,0,1.281-.137,2.5,2.5,0,0,0,1.035-.8,2.8,2.8,0,0,0,.544-1.377v-9.334H112.9v9.334a2.518,2.518,0,0,0,.381,1.342,2.2,2.2,0,0,0,.86.77,2.284,2.284,0,0,0,1.1.226,2.523,2.523,0,0,0,1.1-.286,2.412,2.412,0,0,0,.858-.784,2.345,2.345,0,0,0,.381-1.267v-9.334H121.8v9.688a5.735,5.735,0,0,1-.123,1.172,10.934,10.934,0,0,1-.314,1.172,3.551,3.551,0,0,1-.244.586,5.117,5.117,0,0,1-.335.551,5.25,5.25,0,0,1-.388.5C120.256,141.361,120.121,141.5,119.984,141.642Zm-12.071-20.834a2.384,2.384,0,0,1,.939.184,2.348,2.348,0,0,1,.763.509,2.558,2.558,0,0,1,.526.777,2.769,2.769,0,0,1,.226.981,2.492,2.492,0,0,1-.179,1,2.409,2.409,0,0,1-.537.819,2.694,2.694,0,0,1-.812.551,2.269,2.269,0,0,1-.981.191,2.31,2.31,0,0,1-.979-.212,2.354,2.354,0,0,1-.791-.579,2.578,2.578,0,0,1-.5-.865,2.474,2.474,0,0,1-.123-1.07,2.769,2.769,0,0,1,.26-.9,2.416,2.416,0,0,1,.53-.728,2.511,2.511,0,0,1,.749-.484A2.329,2.329,0,0,1,107.913,120.808Zm2.956-4.932a2.385,2.385,0,0,1,1.7.693,2.483,2.483,0,0,1,.523.777,2.769,2.769,0,0,1,.226.981,2.451,2.451,0,0,1-.177,1,2.415,2.415,0,0,1-.539.816,2.62,2.62,0,0,1-.809.553,2.276,2.276,0,0,1-.981.191,2.381,2.381,0,0,1-1.772-.791,2.623,2.623,0,0,1-.5-.865,2.473,2.473,0,0,1-.121-1.07,2.711,2.711,0,0,1,.258-.9,2.463,2.463,0,0,1,.533-.728,2.437,2.437,0,0,1,.749-.484A2.325,2.325,0,0,1,110.868,115.876Zm2.807,4.958a2.429,2.429,0,0,1,.942.184,2.378,2.378,0,0,1,.763.512,2.483,2.483,0,0,1,.523.777,2.769,2.769,0,0,1,.226.981,2.454,2.454,0,0,1-.716,1.818,2.621,2.621,0,0,1-.809.553,2.31,2.31,0,0,1-.981.191,2.381,2.381,0,0,1-1.772-.791,2.624,2.624,0,0,1-.5-.865,2.474,2.474,0,0,1-.121-1.07,2.711,2.711,0,0,1,.258-.9,2.466,2.466,0,0,1,1.281-1.212A2.326,2.326,0,0,1,113.675,120.834Z" transform="translate(110.984 -110.332)" fill="#1a1818"/>
      <path id="Path_125" data-name="Path 125" d="M22.692,153.662a.962.962,0,0,0-.649.177.664.664,0,0,0-.2.516V157.2a.584.584,0,0,0,.2.484,1.25,1.25,0,0,0,.649.2H6v-4.251a12.768,12.768,0,0,1,.572-2.644,14.584,14.584,0,0,1,1.13-2.581,15.872,15.872,0,0,1,1.609-2.358,13.845,13.845,0,0,1,2-1.981,11.655,11.655,0,0,1,2.323-1.458,8.927,8.927,0,0,1,2.577-.777,8.509,8.509,0,0,1,2.751.067,9.126,9.126,0,0,1,2.849,1.063v10.7Zm-5.069-7.251a4.551,4.551,0,0,0-1.886.116,5.1,5.1,0,0,0-1.6.784,6.288,6.288,0,0,0-1.3,1.281,10.2,10.2,0,0,0-1,1.6,11.882,11.882,0,0,0-.716,1.751,12.73,12.73,0,0,0-.423,1.719h6.923Zm-4.183-11.09a2.374,2.374,0,0,1,1.7.7,2.5,2.5,0,0,1,.523.777,2.757,2.757,0,0,1,.226.981,2.486,2.486,0,0,1-.177,1,2.449,2.449,0,0,1-.54.819,2.684,2.684,0,0,1-.809.551,2.243,2.243,0,0,1-.981.191,2.381,2.381,0,0,1-1.772-.791,2.578,2.578,0,0,1-.5-.865,2.435,2.435,0,0,1-.121-1.07,2.726,2.726,0,0,1,.258-.9,2.456,2.456,0,0,1,.53-.728,2.521,2.521,0,0,1,.751-.484A2.324,2.324,0,0,1,13.439,135.321Zm5.765.028a2.385,2.385,0,0,1,1.7.693,2.53,2.53,0,0,1,.526.777,2.768,2.768,0,0,1,.223.981,2.451,2.451,0,0,1-.177,1,2.41,2.41,0,0,1-.537.816,2.66,2.66,0,0,1-.812.553,2.27,2.27,0,0,1-.981.191,2.328,2.328,0,0,1-.981-.212,2.367,2.367,0,0,1-.788-.579,2.624,2.624,0,0,1-.5-.865,2.439,2.439,0,0,1-.123-1.07,2.825,2.825,0,0,1,.258-.9,2.463,2.463,0,0,1,.533-.728,2.511,2.511,0,0,1,.749-.484A2.328,2.328,0,0,1,19.2,135.349Z" transform="translate(-6 -84.559)" fill="#1a1818"/>
      <path id="Path_126" data-name="Path 126" d="M13.285,153.961a.948.948,0,0,1-.649-.184.671.671,0,0,1-.2-.512v-2.849a.785.785,0,0,1,.116-.484.694.694,0,0,1,.388-.209H24.09V138.292h4.225v11.432h3.637a.951.951,0,0,0-.646.177.656.656,0,0,0-.2.516v2.849a.577.577,0,0,0,.2.484,1.31,1.31,0,0,0,.646.212Zm9.851,2.26a2.377,2.377,0,0,1,.939.186,2.347,2.347,0,0,1,.763.509,2.53,2.53,0,0,1,.526.777,2.769,2.769,0,0,1,.226.981,2.49,2.49,0,0,1-.177,1,2.416,2.416,0,0,1-.54.816,2.648,2.648,0,0,1-.809.553,2.276,2.276,0,0,1-.981.191,2.381,2.381,0,0,1-1.772-.791,2.624,2.624,0,0,1-.5-.865,2.474,2.474,0,0,1-.123-1.07,2.77,2.77,0,0,1,.26-.9,2.416,2.416,0,0,1,.53-.728,2.465,2.465,0,0,1,.749-.484A2.338,2.338,0,0,1,23.136,156.221Zm5.765.028a2.426,2.426,0,0,1,.939.184,2.378,2.378,0,0,1,.763.512,2.529,2.529,0,0,1,.526.777,2.819,2.819,0,0,1,.223.981,2.458,2.458,0,0,1-.177,1,2.492,2.492,0,0,1-.537.816,2.612,2.612,0,0,1-.812.551,2.235,2.235,0,0,1-.981.191,2.367,2.367,0,0,1-1.772-.788,2.618,2.618,0,0,1-.5-.865,2.439,2.439,0,0,1-.123-1.07,2.825,2.825,0,0,1,.258-.9,2.459,2.459,0,0,1,1.281-1.214A2.371,2.371,0,0,1,28.9,156.249Z" transform="translate(2.535 -80.621)" fill="#1a1818"/>
      <path id="Path_127" data-name="Path 127" d="M20.961,157.854a.966.966,0,0,1-.642-.177.726.726,0,0,1-.2-.572V154.38q0-.75.846-.749h2.546l-.626-1.758c-.047-.3-.088-.619-.13-.953a8.28,8.28,0,0,1-.06-1.023,8.16,8.16,0,0,1,.142-1.581,9.572,9.572,0,0,1,.416-1.458q.342-.708.728-1.356a9.281,9.281,0,0,1,.907-1.246q.586-.488,1.193-.912a8.692,8.692,0,0,1,1.314-.751,6.477,6.477,0,0,1,1.507-.435,10.809,10.809,0,0,1,3.256,0,6.015,6.015,0,0,1,1.479.435,9.032,9.032,0,0,1,1.328.723,7.428,7.428,0,0,1,1.137.939q.506.6.953,1.246a8.833,8.833,0,0,1,.777,1.356,6.447,6.447,0,0,1,.465,1.507,9.356,9.356,0,0,1,.135,1.628,8.749,8.749,0,0,1-.135,1.539A5.99,5.99,0,0,1,37.828,153a7.583,7.583,0,0,1-.777,1.363,11.558,11.558,0,0,1-.953,1.172,7.429,7.429,0,0,1-1.137.939,9.033,9.033,0,0,1-1.328.723,7.35,7.35,0,0,1-3.107.653Zm6.267-22.51a2.425,2.425,0,0,1,.939.184,2.353,2.353,0,0,1,.763.512,2.529,2.529,0,0,1,.526.777,2.82,2.82,0,0,1,.226.981,2.5,2.5,0,0,1-.179,1,2.4,2.4,0,0,1-.537.816,2.612,2.612,0,0,1-.812.551,2.271,2.271,0,0,1-.981.193,2.381,2.381,0,0,1-1.77-.791,2.625,2.625,0,0,1-.5-.865,2.474,2.474,0,0,1-.123-1.07,2.825,2.825,0,0,1,.258-.9,2.473,2.473,0,0,1,.533-.73,2.556,2.556,0,0,1,.749-.484A2.37,2.37,0,0,1,27.229,135.344Zm3.27,11.392a3.525,3.525,0,0,0-1.342.258,3.416,3.416,0,0,0-1.1.716,3.6,3.6,0,0,0-.756,1.077,3.282,3.282,0,0,0-.3,1.328,3.218,3.218,0,0,0,.253,1.4,3.431,3.431,0,0,0,.77,1.132,3.636,3.636,0,0,0,1.137.749,3.464,3.464,0,0,0,2.725-.042,3.5,3.5,0,0,0,1.825-1.879,3.321,3.321,0,0,0,.251-1.349,3.453,3.453,0,0,0-.286-1.33,3.352,3.352,0,0,0-.742-1.074,3.535,3.535,0,0,0-1.1-.723A3.386,3.386,0,0,0,30.5,146.736Zm2.493-11.365a2.374,2.374,0,0,1,1.7.7,2.483,2.483,0,0,1,.523.777,2.757,2.757,0,0,1,.226.981,2.464,2.464,0,0,1-.716,1.818,2.575,2.575,0,0,1-.809.551,2.242,2.242,0,0,1-.981.191,2.38,2.38,0,0,1-1.772-.791,2.578,2.578,0,0,1-.5-.865,2.469,2.469,0,0,1-.121-1.07,2.713,2.713,0,0,1,.258-.9,2.458,2.458,0,0,1,1.281-1.214A2.324,2.324,0,0,1,32.991,135.372Z" transform="translate(12.709 -84.529)" fill="#1a1818"/>
      <path id="Path_128" data-name="Path 128" d="M36.032,154.175l-1.037,2.481L33.4,159.121,31.234,161.6l-3.5-2.672,1.351-1.593,1.13-1.377.777-1.225.653-1.186.533-1.377.353-1.512a17,17,0,0,0,.463-3.251,19.779,19.779,0,0,0-.123-3.209,15.547,15.547,0,0,0-.681-3,20.977,20.977,0,0,0-1.2-2.881h4.8a19.716,19.716,0,0,1,1.037,3.142,20.744,20.744,0,0,1,.5,3.372,17.317,17.317,0,0,1,.056,3.372,22.132,22.132,0,0,1-.558,3.467Z" transform="translate(22.805 -80.591)" fill="#1a1818"/>
      <path id="Path_129" data-name="Path 129" d="M39.618,159.243l2.439-2.725c.316-.426.619-.87.9-1.328s.549-.893.784-1.3l-2.07.246h-.491q-.736-.07-1.507-.191A10.7,10.7,0,0,1,38.2,153.6a9.291,9.291,0,0,1-1.349-.646,5.093,5.093,0,0,1-1.088-.851,6.8,6.8,0,0,1-1.1-1.232,5.61,5.61,0,0,1-.688-1.439,7.836,7.836,0,0,1-.526-1.546,8.176,8.176,0,0,1-.17-1.737l.314-2.139a8.352,8.352,0,0,1,.353-.986,8.986,8.986,0,0,1,.465-.921l1.253-1.593,1.565-1.228,2-.844,2.193-.286h.246l2.7.381a5.612,5.612,0,0,1,1.444.551,6.046,6.046,0,0,1,1.158.851,8.644,8.644,0,0,1,.893.949,6.957,6.957,0,0,1,.742,1.123,11.184,11.184,0,0,1,.628,1.384,5.709,5.709,0,0,1,.34,1.532l.163,2.167-.163,2.821H60.228c-.253,0-9.751.07-9.888.209a.752.752,0,0,0-.2.539v2.751a.754.754,0,0,0,.137.484c.091.114,9.555.193,9.792.24H48.352l-1.935,3.76q-.67,1.022-1.458,2.051t-1.772,2.118Zm3.665-9.4,1.839-.314.258-1.851-.258-1.528c-.044-.291-.093-.57-.142-.837a1.966,1.966,0,0,0-.293-.728l-.777-1.133a2.577,2.577,0,0,0-1.132-.749l-1.349-.286-1.539.286a2.744,2.744,0,0,0-.621.328c-.177.126-.356.267-.537.421l-.653,1.214-.314,1.484a3.8,3.8,0,0,0,.081.8,4.234,4.234,0,0,0,.233.73,3.394,3.394,0,0,0,.388.681,1.982,1.982,0,0,0,.619.544,1.694,1.694,0,0,0,.416.347,1.664,1.664,0,0,0,.579.184l1.416.314,1.091.1Z" transform="translate(30.16 -80.808)" fill="#1a1818"/>
      <path id="Path_130" data-name="Path 130" d="M41.026,157.371a.97.97,0,0,1-.674-.191.659.659,0,0,1-.2-.491v-2.863a.648.648,0,0,1,.2-.5.983.983,0,0,1,.674-.186H52.549V135.719h4.293v21.652Z" transform="translate(39.269 -84.032)" fill="#1a1818"/>
      <path id="Path_131" data-name="Path 131" d="M53.243,135.573v21.978H49.006V135.573Z" transform="translate(51.002 -84.225)" fill="#1a1818"/>
      <path id="Path_132" data-name="Path 132" d="M80.511,138.627v15.453H61.175a6.007,6.007,0,0,1-1.532-.184,9.368,9.368,0,0,1-1.409-.5,9.2,9.2,0,0,1-1.316-.709,11.242,11.242,0,0,1-1.191-.9,8.742,8.742,0,0,1-.879-1.207,11.674,11.674,0,0,1-.688-1.328,6.423,6.423,0,0,1-.465-1.539,7.219,7.219,0,0,1-.067-1.6,10.047,10.047,0,0,1,.13-1.684,7.441,7.441,0,0,1,.4-1.451,12.741,12.741,0,0,1,.688-1.342,5.708,5.708,0,0,1,.879-1.137c.391-.291.786-.56,1.191-.812a11.093,11.093,0,0,1,1.316-.688,7.644,7.644,0,0,1,1.409-.421,8.058,8.058,0,0,1,1.532-.137v4.2l-1.253.244a4.173,4.173,0,0,0-.633.307,1.676,1.676,0,0,0-.5.444,2.391,2.391,0,0,0-.367.484,3.046,3.046,0,0,0-.286.619l-.286,1.472a3.463,3.463,0,0,0,.286,1.472,3.349,3.349,0,0,0,.286.633,2.265,2.265,0,0,0,.367.5c.191.172.372.323.544.451a2.177,2.177,0,0,0,.586.3l1.253.286H76.367v-11.23Zm-14.539-.435a2.374,2.374,0,0,1,1.7.7,2.53,2.53,0,0,1,.526.777,2.756,2.756,0,0,1,.223.981,2.475,2.475,0,0,1-.714,1.819,2.654,2.654,0,0,1-.812.551,2.236,2.236,0,0,1-.981.191,2.371,2.371,0,0,1-1.77-.791,2.578,2.578,0,0,1-.5-.865,2.435,2.435,0,0,1-.123-1.07,2.829,2.829,0,0,1,.258-.9,2.445,2.445,0,0,1,.533-.73,2.511,2.511,0,0,1,.749-.484A2.328,2.328,0,0,1,65.972,138.192Zm5.762.028a2.385,2.385,0,0,1,1.7.693,2.551,2.551,0,0,1,.523.777,2.768,2.768,0,0,1,.226.981,2.465,2.465,0,0,1-.716,1.821,2.656,2.656,0,0,1-.809.551,2.276,2.276,0,0,1-.981.191,2.381,2.381,0,0,1-1.772-.791,2.578,2.578,0,0,1-.5-.865,2.474,2.474,0,0,1-.121-1.07,2.71,2.71,0,0,1,.258-.9,2.444,2.444,0,0,1,1.281-1.212A2.325,2.325,0,0,1,71.735,138.22Z" transform="translate(57.105 -80.754)" fill="#1a1818"/>
      <path id="Path_133" data-name="Path 133" d="M85.13,153.336c-.263,0-12.081.058-12.2.177a.681.681,0,0,0-.177.5v2.793a.785.785,0,0,0,.184.537c.123.142,11.962.212,12.262.212H66.678V135.567H70.9v17.769Z" transform="translate(74.426 -84.233)" fill="#1a1818"/>
      <path id="Path_134" data-name="Path 134" d="M69.8,154.592a1.037,1.037,0,0,1-.681-.177.629.629,0,0,1-.2-.5v-2.849a.645.645,0,0,1,.2-.516,1.037,1.037,0,0,1,.681-.177H97a11.953,11.953,0,0,0-.258-1.779,11,11,0,0,0-.533-1.7,7.818,7.818,0,0,0-.823-1.484,11.884,11.884,0,0,0-1.137-1.377,7.206,7.206,0,0,0-1.1-.9,4.91,4.91,0,0,0-1.165-.572,4.377,4.377,0,0,0-1.246-.456,6.926,6.926,0,0,0-1.356-.13l-2.263.437c-.344.126-.67.26-.974.4a6.279,6.279,0,0,0-.933.537l-.5.435L82.2,140.312l.5-.353a8.753,8.753,0,0,1,1.5-.974,10.106,10.106,0,0,1,1.628-.647,11.268,11.268,0,0,1,1.719-.4,12.291,12.291,0,0,1,1.825-.13,10.488,10.488,0,0,1,4.237.872,11.492,11.492,0,0,1,3.665,2.358,15.621,15.621,0,0,1,1.616,2.051,14.849,14.849,0,0,1,1.232,2.267,24.24,24.24,0,0,1,.879,2.474,10.212,10.212,0,0,1,.4,2.542h1.921a.827.827,0,0,0-.586.191.651.651,0,0,0-.2.5v2.849a.533.533,0,0,0,.2.463,1.438,1.438,0,0,0,.586.219Zm20.28,2.37a2.351,2.351,0,0,1,.926.186,2.4,2.4,0,0,1,.763.5,2.381,2.381,0,0,1,.519.765,2.781,2.781,0,0,1,.219.972,2.443,2.443,0,0,1-.177,1,2.522,2.522,0,0,1-.533.812,2.492,2.492,0,0,1-.8.544,2.254,2.254,0,0,1-.974.184,2.282,2.282,0,0,1-.974-.212,2.379,2.379,0,0,1-.784-.572,2.421,2.421,0,0,1-.5-.851,2.465,2.465,0,0,1-.116-1.063,2.59,2.59,0,0,1,.784-1.6,2.374,2.374,0,0,1,.735-.484A2.279,2.279,0,0,1,90.076,156.962Z" transform="translate(77.384 -81.267)" fill="#1a1818"/>
      <path id="Path_135" data-name="Path 135" d="M83.848,157.921a.942.942,0,0,1-.646-.184.662.662,0,0,1-.2-.512v-2.849a.785.785,0,0,1,.116-.484.71.71,0,0,1,.388-.212h4.17V142.249H91.9v11.432h3.639a.962.962,0,0,0-.649.179.661.661,0,0,0-.2.516v2.849a.584.584,0,0,0,.2.484,1.33,1.33,0,0,0,.649.212Zm2.739-22.606a2.383,2.383,0,0,1,.939.184,2.354,2.354,0,0,1,.763.512,2.53,2.53,0,0,1,.526.777,2.757,2.757,0,0,1,.226.981,2.442,2.442,0,0,1-.179,1,2.409,2.409,0,0,1-.537.819,2.653,2.653,0,0,1-.812.551,2.229,2.229,0,0,1-.981.191,2.38,2.38,0,0,1-1.77-.791,2.578,2.578,0,0,1-.5-.865,2.469,2.469,0,0,1-.123-1.07,2.773,2.773,0,0,1,.26-.9,2.427,2.427,0,0,1,.53-.73,2.511,2.511,0,0,1,.749-.484A2.328,2.328,0,0,1,86.588,135.315Zm5.762.028a2.374,2.374,0,0,1,1.7.7,2.456,2.456,0,0,1,.523.777,2.745,2.745,0,0,1,.226.979,2.451,2.451,0,0,1-.177,1,2.479,2.479,0,0,1-.537.819,2.7,2.7,0,0,1-.812.551,2.243,2.243,0,0,1-.981.191,2.381,2.381,0,0,1-1.772-.791,2.617,2.617,0,0,1-.5-.865,2.474,2.474,0,0,1-.121-1.07,2.709,2.709,0,0,1,.258-.9,2.465,2.465,0,0,1,1.281-1.212A2.325,2.325,0,0,1,92.35,135.343Z" transform="translate(96.065 -84.567)" fill="#1a1818"/>
      <path id="Path_136" data-name="Path 136" d="M88.557,157.808c-.609,0-.912-.228-.912-.681v-2.86a.6.6,0,0,1,.23-.5,1.077,1.077,0,0,1,.681-.184h3.788v-11.5h4.237v11.5h3.693a.979.979,0,0,0-.674.184.641.641,0,0,0-.2.5v2.86a.552.552,0,0,0,.191.47,1.4,1.4,0,0,0,.586.212Zm6.051-22.429a2.4,2.4,0,0,1,1.7.7,2.53,2.53,0,0,1,.526.777,2.768,2.768,0,0,1,.223.981,2.458,2.458,0,0,1-.177,1,2.41,2.41,0,0,1-.537.816,2.659,2.659,0,0,1-.812.553,2.27,2.27,0,0,1-.981.191,2.371,2.371,0,0,1-1.77-.791,2.624,2.624,0,0,1-.5-.865,2.439,2.439,0,0,1-.123-1.07,2.825,2.825,0,0,1,.258-.9,2.433,2.433,0,0,1,.533-.728,2.466,2.466,0,0,1,.749-.484A2.33,2.33,0,0,1,94.607,135.379Z" transform="translate(102.216 -84.482)" fill="#1a1818"/>
      <path id="Path_137" data-name="Path 137" d="M99.356,154.819a8.168,8.168,0,0,1-1.36-.865,6.946,6.946,0,0,1-1.172-1.165h-3.83a.513.513,0,0,1-.456-.191.887.887,0,0,1-.13-.5v-2.849a.607.607,0,0,1,.681-.693H94.7l-.1-.723V147.3a8.537,8.537,0,0,1,.067-1.13,9.108,9.108,0,0,1,.177-.967c.146-.363.291-.7.437-1.014s.3-.635.477-.96l1.253-1.663,1.663-1.228,1.935-.8,2.1-.356a9.418,9.418,0,0,1,1.677.144,6.58,6.58,0,0,1,1.5.456,8.308,8.308,0,0,1,1.37.812c.414.3.823.628,1.232.974.346.407.667.828.967,1.26a8.585,8.585,0,0,1,.791,1.409,6.289,6.289,0,0,1,.456,1.465,8.969,8.969,0,0,1,.13,1.6v.533l-.1.723h1.349q-.778,0-.777.693v2.849a.689.689,0,0,0,.191.5.807.807,0,0,0,.586.191h-3.351a13.467,13.467,0,0,1-1.26,1.109,8.212,8.212,0,0,1-1.493.921,7.544,7.544,0,0,1-1.546.512,8.115,8.115,0,0,1-1.723.184,8.446,8.446,0,0,1-1.765-.184A8.141,8.141,0,0,1,99.356,154.819Zm3.477-11.037a3.279,3.279,0,0,0-1.363.258,3.55,3.55,0,0,0-1.126.756,3.832,3.832,0,0,0-.777,1.132A3.649,3.649,0,0,0,99.5,148.7a3.662,3.662,0,0,0,.735,1.151,3.457,3.457,0,0,0,2.46,1.084,3.114,3.114,0,0,0,1.423-.272,3.6,3.6,0,0,0,1.151-.819,3.669,3.669,0,0,0,.758-1.2,3.552,3.552,0,0,0,.237-1.432,3.632,3.632,0,0,0-.3-1.328,3.495,3.495,0,0,0-1.812-1.818A3.388,3.388,0,0,0,102.833,143.783Z" transform="translate(108.53 -79.449)" fill="#1a1818"/>
      <path id="Path_138" data-name="Path 138" d="M100.86,157.434a.98.98,0,0,1-.5-.279.733.733,0,0,1-.149-.47v-2.753a.69.69,0,0,1,.749-.735h2.153V135.672h4.211V153.2h1.974a.947.947,0,0,0-.688.2.559.559,0,0,0-.128.533v2.753a.572.572,0,0,0,.128.537.917.917,0,0,0,.688.212Z" transform="translate(118.867 -84.094)" fill="#1a1818"/>
      <path id="Path_139" data-name="Path 139" d="M104.261,157.371a.962.962,0,0,1-.674-.191.65.65,0,0,1-.2-.491v-2.863a.64.64,0,0,1,.2-.5.975.975,0,0,1,.674-.186h2.221V135.719h4.29v21.652Z" transform="translate(123.084 -84.032)" fill="#1a1818"/>
    </g>
    <g id="Group_7" data-name="Group 7" transform="translate(149.559 328.792)">
      <path id="Path_140" data-name="Path 140" d="M76.078,164.987a.432.432,0,0,0-.321.1.408.408,0,0,0-.1.3v1.628a.356.356,0,0,0,.1.279.542.542,0,0,0,.321.112H67.734v-2.43a8.47,8.47,0,0,1,.286-1.516,9.271,9.271,0,0,1,1.37-2.828,7.589,7.589,0,0,1,1-1.132,5.628,5.628,0,0,1,1.163-.835,4.113,4.113,0,0,1,1.286-.446,3.727,3.727,0,0,1,1.377.042,4.214,4.214,0,0,1,1.423.607v6.121Zm-2.535-4.149a2.011,2.011,0,0,0-.942.067,2.5,2.5,0,0,0-.8.449,3.419,3.419,0,0,0-.649.733,6.1,6.1,0,0,0-.5.916,7.575,7.575,0,0,0-.356,1,8.184,8.184,0,0,0-.212.979h3.458Zm-2.088-6.346a1.038,1.038,0,0,1,.47.1,1.164,1.164,0,0,1,.381.293,1.468,1.468,0,0,1,.263.444,1.791,1.791,0,0,1,.109.56,1.554,1.554,0,0,1-.088.572,1.414,1.414,0,0,1-.267.47,1.292,1.292,0,0,1-.4.314,1,1,0,0,1-.491.112,1.018,1.018,0,0,1-.491-.123,1.2,1.2,0,0,1-.4-.33,1.553,1.553,0,0,1-.251-.5,1.6,1.6,0,0,1-.06-.612,1.72,1.72,0,0,1,.128-.514,1.451,1.451,0,0,1,.267-.419,1.215,1.215,0,0,1,.374-.277A1.037,1.037,0,0,1,71.455,154.492Zm2.879.016a1.06,1.06,0,0,1,.47.1,1.2,1.2,0,0,1,.381.293,1.532,1.532,0,0,1,.265.444,1.806,1.806,0,0,1,.112.563,1.6,1.6,0,0,1-.088.572,1.425,1.425,0,0,1-.27.467,1.275,1.275,0,0,1-.407.316.965.965,0,0,1-.488.109,1.029,1.029,0,0,1-.491-.121,1.175,1.175,0,0,1-.4-.33,1.582,1.582,0,0,1-.253-.5,1.6,1.6,0,0,1-.06-.612,1.737,1.737,0,0,1,.13-.516,1.386,1.386,0,0,1,.265-.416,1.244,1.244,0,0,1,.374-.277A1.012,1.012,0,0,1,74.334,154.508Z" transform="translate(-67.734 -154.492)" fill="#474748"/>
      <path id="Path_141" data-name="Path 141" d="M71.376,165.161a.365.365,0,0,1-.423-.4v-1.628a.487.487,0,0,1,.06-.277.345.345,0,0,1,.193-.123H73.29v-6.542H75.4v6.542H77.22a.438.438,0,0,0-.323.1.407.407,0,0,0-.1.3v1.628a.355.355,0,0,0,.1.279.6.6,0,0,0,.323.121Zm1.437,1.3a1.069,1.069,0,0,1,.47.1,1.165,1.165,0,0,1,.381.293,1.444,1.444,0,0,1,.26.444,1.756,1.756,0,0,1,.114.563,1.569,1.569,0,0,1-.088.572,1.407,1.407,0,0,1-.27.467,1.335,1.335,0,0,1-.4.316,1,1,0,0,1-.491.109,1.042,1.042,0,0,1-.491-.121,1.2,1.2,0,0,1-.4-.333,1.507,1.507,0,0,1-.251-.5,1.6,1.6,0,0,1-.06-.612,1.7,1.7,0,0,1,.128-.514,1.45,1.45,0,0,1,.267-.419,1.215,1.215,0,0,1,.374-.277A1.071,1.071,0,0,1,72.813,166.457Zm2.881.016a1.038,1.038,0,0,1,.47.1,1.141,1.141,0,0,1,.381.293,1.485,1.485,0,0,1,.263.442,1.807,1.807,0,0,1,.114.563,1.6,1.6,0,0,1-.091.572,1.4,1.4,0,0,1-.27.47,1.292,1.292,0,0,1-.4.314.945.945,0,0,1-.491.109,1,1,0,0,1-.488-.121,1.153,1.153,0,0,1-.4-.33,1.581,1.581,0,0,1-.253-.5,1.613,1.613,0,0,1-.06-.614,1.707,1.707,0,0,1,.13-.512,1.4,1.4,0,0,1,.265-.419,1.243,1.243,0,0,1,.374-.277A1.006,1.006,0,0,1,75.695,166.473Z" transform="translate(-63.467 -152.239)" fill="#474748"/>
      <path id="Path_142" data-name="Path 142" d="M73.714,167.389a.429.429,0,0,1-.321-.1.44.44,0,0,1-.1-.326V165.4a.378.378,0,0,1,.423-.43h1.274l-.314-1c-.023-.17-.047-.353-.067-.546s-.028-.388-.028-.586a5.185,5.185,0,0,1,.07-.9,6.357,6.357,0,0,1,.209-.835c.114-.272.233-.528.363-.777a5.105,5.105,0,0,1,.453-.712c.2-.188.393-.363.6-.526a4.032,4.032,0,0,1,.658-.426,2.845,2.845,0,0,1,.753-.251,4.78,4.78,0,0,1,1.628,0,2.635,2.635,0,0,1,.737.251,3.848,3.848,0,0,1,1.235.951c.167.226.326.465.477.712a5.5,5.5,0,0,1,.388.777,4.042,4.042,0,0,1,.23.863,5.9,5.9,0,0,1,.07.93,5.613,5.613,0,0,1-.07.884,3.706,3.706,0,0,1-.23.839,4.613,4.613,0,0,1-.388.781,7.012,7.012,0,0,1-.477.67,3.969,3.969,0,0,1-.57.54,4.133,4.133,0,0,1-.665.412,3.247,3.247,0,0,1-1.551.374ZM76.847,154.5a1.064,1.064,0,0,1,.47.107,1.24,1.24,0,0,1,.384.293,1.491,1.491,0,0,1,.26.444,1.806,1.806,0,0,1,.114.563,1.6,1.6,0,0,1-.088.572,1.429,1.429,0,0,1-.272.467,1.29,1.29,0,0,1-.4.316.979.979,0,0,1-.491.109,1.028,1.028,0,0,1-.491-.121,1.155,1.155,0,0,1-.4-.332,1.545,1.545,0,0,1-.253-.493,1.613,1.613,0,0,1-.06-.614,1.74,1.74,0,0,1,.13-.514,1.358,1.358,0,0,1,.265-.416,1.251,1.251,0,0,1,.374-.279A1.046,1.046,0,0,1,76.847,154.5Zm1.635,6.523a1.558,1.558,0,0,0-.672.149,1.691,1.691,0,0,0-.551.407,2.106,2.106,0,0,0-.377.616,2.312,2.312,0,0,0-.026,1.565,2.018,2.018,0,0,0,.386.646,1.882,1.882,0,0,0,.567.43,1.476,1.476,0,0,0,.693.146,1.5,1.5,0,0,0,.67-.17,1.783,1.783,0,0,0,.549-.437,2.1,2.1,0,0,0,.365-.64,2.144,2.144,0,0,0,.126-.772,2.21,2.21,0,0,0-.144-.76,1.943,1.943,0,0,0-.37-.616,1.775,1.775,0,0,0-.546-.412A1.505,1.505,0,0,0,78.481,161.027Zm1.246-6.507a1.078,1.078,0,0,1,.47.107,1.182,1.182,0,0,1,.381.291,1.462,1.462,0,0,1,.263.446,1.805,1.805,0,0,1,.112.56,1.609,1.609,0,0,1-.088.574,1.444,1.444,0,0,1-.267.467,1.337,1.337,0,0,1-.407.316,1.031,1.031,0,0,1-.491.109,1.047,1.047,0,0,1-.488-.121,1.2,1.2,0,0,1-.4-.333,1.53,1.53,0,0,1-.251-.5,1.565,1.565,0,0,1-.063-.612,1.8,1.8,0,0,1,.13-.514,1.4,1.4,0,0,1,.265-.419,1.316,1.316,0,0,1,.374-.277A1.04,1.04,0,0,1,79.728,154.52Z" transform="translate(-60.368 -154.476)" fill="#474748"/>
      <path id="Path_143" data-name="Path 143" d="M81.248,165.282l-.519,1.419-.8,1.414-1.081,1.419L77.1,168.005l.674-.914.565-.788.388-.7.326-.679.267-.788.177-.865a10.816,10.816,0,0,0,.23-1.86,13.119,13.119,0,0,0-.06-1.837,10.12,10.12,0,0,0-.34-1.719,13.534,13.534,0,0,0-.6-1.649h2.4a12.368,12.368,0,0,1,.519,1.8,13.53,13.53,0,0,1,.251,1.93,11.589,11.589,0,0,1,.028,1.93,14.724,14.724,0,0,1-.279,1.986Z" transform="translate(-55.321 -152.22)" fill="#474748"/>
      <path id="Path_144" data-name="Path 144" d="M82.993,168.146l1.219-1.558c.165-.244.323-.493.479-.749a5.258,5.258,0,0,0,.4-.781l-1.046.179h-.219a5.621,5.621,0,0,1-.767-.128c-.256-.06-.5-.128-.737-.207a4.909,4.909,0,0,1-.674-.358,1.975,1.975,0,0,1-.533-.484,3.015,3.015,0,0,1-.551-.686,4.31,4.31,0,0,1-.36-.8,3.887,3.887,0,0,1-.258-.9,6.405,6.405,0,0,1-.07-.97l.156-1.256a5.629,5.629,0,0,1,.172-.549,2.607,2.607,0,0,1,.251-.512l.614-.9.784-.716.967-.467,1.1-.181h.13l1.374.235a2.641,2.641,0,0,1,.679.307,3.652,3.652,0,0,1,.6.481c.153.17.3.344.433.523a3,3,0,0,1,.363.663,4.853,4.853,0,0,1,.5,1.681l.084,1.186-.084,1.614c-.067.335-.123.6-.172.8s-.093.384-.133.544-.088.314-.137.474-.112.358-.184.6l-.967,2.153q-.321.569-.7,1.146c-.256.384-.556.793-.9,1.225Zm1.879-5.365.891-.156.109-1.1-.109-.819c-.021-.181-.046-.346-.074-.493a2.328,2.328,0,0,0-.142-.458l-.4-.633a.931.931,0,0,0-.214-.226,1.149,1.149,0,0,0-.351-.172l-.674-.209-.763.209a1.253,1.253,0,0,0-.307.172,3.188,3.188,0,0,0-.258.226l-.314.686-.142.9a2.852,2.852,0,0,0,.033.421,2,2,0,0,0,.109.4,1.353,1.353,0,0,0,.172.412.893.893,0,0,0,.312.291,1.026,1.026,0,0,0,.193.219.678.678,0,0,0,.326.126l.674.153.551.056Z" transform="translate(-51.646 -152.324)" fill="#474748"/>
      <path id="Path_145" data-name="Path 145" d="M98.156,156.384v8.844H88.491a2.675,2.675,0,0,1-.767-.1,4.368,4.368,0,0,1-.7-.288,4.44,4.44,0,0,1-.658-.4,6.013,6.013,0,0,1-.6-.516,5,5,0,0,1-.44-.691,6.954,6.954,0,0,1-.344-.76,3.92,3.92,0,0,1-.23-.881,4.546,4.546,0,0,1-.035-.914,6.761,6.761,0,0,1,.063-.963,4.813,4.813,0,0,1,.2-.83,7.736,7.736,0,0,1,.344-.767,3.227,3.227,0,0,1,.44-.651c.2-.167.393-.321.6-.465a5.341,5.341,0,0,1,.658-.393,3.289,3.289,0,0,1,1.472-.319v2.4l-.628.14a1.783,1.783,0,0,0-.316.177.914.914,0,0,0-.249.251,1.541,1.541,0,0,0-.184.277,1.915,1.915,0,0,0-.142.358l-.144.839a2.22,2.22,0,0,0,.144.842,1.959,1.959,0,0,0,.142.363,1.487,1.487,0,0,0,.184.286c.1.1.186.186.272.258a1.026,1.026,0,0,0,.293.17l.628.163h7.595v-6.425Zm-7.269-.249a1.062,1.062,0,0,1,.47.1,1.142,1.142,0,0,1,.381.293,1.5,1.5,0,0,1,.265.444,1.807,1.807,0,0,1,.112.563,1.555,1.555,0,0,1-.091.572,1.4,1.4,0,0,1-.267.467,1.276,1.276,0,0,1-.407.316.965.965,0,0,1-.488.109,1.029,1.029,0,0,1-.491-.121,1.155,1.155,0,0,1-.4-.333,1.585,1.585,0,0,1-.312-1.1,1.717,1.717,0,0,1,.128-.516,1.427,1.427,0,0,1,.265-.419,1.328,1.328,0,0,1,.374-.277A1.038,1.038,0,0,1,90.886,156.135Zm2.881.014a1.081,1.081,0,0,1,.472.107,1.189,1.189,0,0,1,.381.293,1.464,1.464,0,0,1,.263.442,1.835,1.835,0,0,1,.112.565,1.6,1.6,0,0,1-.088.572,1.488,1.488,0,0,1-.267.467,1.372,1.372,0,0,1-.407.316,1,1,0,0,1-.491.109,1.036,1.036,0,0,1-.491-.121,1.156,1.156,0,0,1-.4-.333,1.507,1.507,0,0,1-.251-.5,1.561,1.561,0,0,1-.063-.612,1.775,1.775,0,0,1,.13-.514,1.4,1.4,0,0,1,.265-.419,1.234,1.234,0,0,1,.374-.277A1.047,1.047,0,0,1,93.768,156.149Z" transform="translate(-45.235 -152.314)" fill="#474748"/>
      <path id="Path_146" data-name="Path 146" d="M94.654,164.8a.36.36,0,0,0-.286.1.436.436,0,0,0-.088.288v1.6a.5.5,0,0,0,.091.309.379.379,0,0,0,.319.119H91.24V154.632h2.112V164.8Z" transform="translate(-36.578 -154.306)" fill="#474748"/>
      <path id="Path_147" data-name="Path 147" d="M100.847,165.357H92.708a.487.487,0,0,1-.253-.121.432.432,0,0,1-.074-.284V163.36a.463.463,0,0,1,.1-.323.34.34,0,0,1,.26-.107h.946l-.346-1.153c-.033-.181-.058-.365-.079-.553a5.168,5.168,0,0,1-.03-.577,5.3,5.3,0,0,1,.077-.9,6.436,6.436,0,0,1,.237-.912,4.474,4.474,0,0,1,.384-.777,6.862,6.862,0,0,1,.5-.691,5.818,5.818,0,0,1,.626-.546,4.824,4.824,0,0,1,.744-.451,5.032,5.032,0,0,1,.784-.233,3.472,3.472,0,0,1,.781-.088,4.143,4.143,0,0,1,.867.088,4.423,4.423,0,0,1,.793.233,4.477,4.477,0,0,1,.751.456,4.088,4.088,0,0,1,.619.588l.177.274-1.342,2.049-.265-.4a1.532,1.532,0,0,0-.277-.372,1.8,1.8,0,0,0-.409-.293,2.607,2.607,0,0,0-.474-.144,2.352,2.352,0,0,0-.486-.051l-.674.2-.579.453-.36.723-.123.8v.342l.074.377.144.358.216.423.751.551,1.028.233h3.058Z" transform="translate(-35.067 -152.435)" fill="#474748"/>
      <path id="Path_148" data-name="Path 148" d="M100.088,164.8a.36.36,0,0,0-.286.1.424.424,0,0,0-.091.288v1.6a.49.49,0,0,0,.093.309.377.377,0,0,0,.316.119H96.674V154.632h2.112V164.8Z" transform="translate(-29.375 -154.306)" fill="#474748"/>
      <path id="Path_149" data-name="Path 149" d="M98.24,167.361c-.3,0-.456-.128-.456-.391v-1.637a.37.37,0,0,1,.116-.284.491.491,0,0,1,.34-.107h1.9v-6.581h2.118v6.581H104.1a.456.456,0,0,0-.34.107.4.4,0,0,0-.1.284v1.637a.34.34,0,0,0,.1.272.605.605,0,0,0,.291.119Zm3.025-12.836a1.062,1.062,0,0,1,.47.1,1.141,1.141,0,0,1,.381.293,1.5,1.5,0,0,1,.263.444,1.806,1.806,0,0,1,.114.56,1.63,1.63,0,0,1-.088.577,1.48,1.48,0,0,1-.272.467,1.365,1.365,0,0,1-.4.314.99.99,0,0,1-.488.109,1.053,1.053,0,0,1-.491-.119,1.209,1.209,0,0,1-.4-.332,1.574,1.574,0,0,1-.314-1.109,1.722,1.722,0,0,1,.13-.514,1.358,1.358,0,0,1,.265-.416,1.17,1.17,0,0,1,.374-.277A1.047,1.047,0,0,1,101.265,154.525Z" transform="translate(-27.904 -154.448)" fill="#474748"/>
      <path id="Path_150" data-name="Path 150" d="M104.451,157.581a3.733,3.733,0,0,1,.588-.521,4.634,4.634,0,0,1,.681-.437c.188-.093.4-.186.626-.277a4.4,4.4,0,0,1,.73-.221,4.457,4.457,0,0,1,1.063-.067,2.505,2.505,0,0,1,.853.114,6.769,6.769,0,0,1,1.1.316,4.764,4.764,0,0,1,.956.5,5.181,5.181,0,0,1,.849.709,7.61,7.61,0,0,1,.7.835,4.876,4.876,0,0,1,.54.96q.22.52.4,1.077a10.192,10.192,0,0,1,.284,1.153,9.1,9.1,0,0,1,.135,1.191v2.418H100.554a.422.422,0,0,1-.321-.1.385.385,0,0,1-.1-.288v-1.637a.49.49,0,0,1,.058-.267.36.36,0,0,1,.186-.123h1.3l.381-.2.279-.46v-5.846h2.111Zm2.479,1.272c-.219.1-.377.186-.479.246a2.093,2.093,0,0,0-.349.27,2.613,2.613,0,0,0-.328.365c-.091.126-.2.281-.319.472a3.268,3.268,0,0,0-.3.6c-.079.207-.151.43-.221.663a7,7,0,0,0-.258,1.449H111.6a4.076,4.076,0,0,0-.063-.73,7.172,7.172,0,0,0-.163-.719,4.39,4.39,0,0,0-.24-.647,8.128,8.128,0,0,0-.426-.758,3.757,3.757,0,0,0-.493-.665,2.008,2.008,0,0,0-.36-.3,3.306,3.306,0,0,0-.312-.167,3.484,3.484,0,0,0-.335-.137c-.114-.04-.26-.084-.442-.137a2.52,2.52,0,0,0-.656-.081A3.993,3.993,0,0,0,106.93,158.853Z" transform="translate(-24.791 -152.421)" fill="#474748"/>
    </g>
    <g id="Group_8" data-name="Group 8" transform="translate(104.239 328.792)">
      <path id="Path_151" data-name="Path 151" d="M56.589,164.987a.442.442,0,0,0-.323.1.418.418,0,0,0-.1.3v1.628a.364.364,0,0,0,.1.279.556.556,0,0,0,.323.112H48.245v-2.43a8.473,8.473,0,0,1,.286-1.516,9.131,9.131,0,0,1,1.37-2.828,7.46,7.46,0,0,1,1-1.132,5.627,5.627,0,0,1,1.163-.835,4.1,4.1,0,0,1,1.284-.446,3.724,3.724,0,0,1,1.377.042,4.224,4.224,0,0,1,1.426.607v6.121Zm-2.535-4.149a2.011,2.011,0,0,0-.942.067,2.5,2.5,0,0,0-.8.449,3.419,3.419,0,0,0-.649.733,6.1,6.1,0,0,0-.5.916,7.257,7.257,0,0,0-.356,1,7.756,7.756,0,0,0-.212.979h3.458Zm-2.088-6.346a1.045,1.045,0,0,1,.47.1,1.189,1.189,0,0,1,.381.293,1.418,1.418,0,0,1,.26.444,1.728,1.728,0,0,1,.112.56,1.6,1.6,0,0,1-.088.572,1.414,1.414,0,0,1-.267.47,1.318,1.318,0,0,1-.4.314,1,1,0,0,1-.491.112,1.011,1.011,0,0,1-.491-.123,1.2,1.2,0,0,1-.4-.33,1.507,1.507,0,0,1-.251-.5,1.6,1.6,0,0,1-.063-.612,1.8,1.8,0,0,1,.13-.514,1.4,1.4,0,0,1,.265-.419,1.272,1.272,0,0,1,.374-.277A1.047,1.047,0,0,1,51.966,154.492Zm2.879.016a1.067,1.067,0,0,1,.47.1,1.231,1.231,0,0,1,.381.293,1.533,1.533,0,0,1,.265.444,1.806,1.806,0,0,1,.109.563,1.554,1.554,0,0,1-.088.572,1.381,1.381,0,0,1-.267.467,1.276,1.276,0,0,1-.407.316.968.968,0,0,1-.491.109,1.042,1.042,0,0,1-.491-.121,1.2,1.2,0,0,1-.4-.33,1.577,1.577,0,0,1-.251-.5,1.6,1.6,0,0,1-.06-.612,1.734,1.734,0,0,1,.128-.516,1.438,1.438,0,0,1,.267-.416,1.215,1.215,0,0,1,.374-.277A1.006,1.006,0,0,1,54.845,154.508Z" transform="translate(-48.245 -154.492)" fill="#21a6e2"/>
      <path id="Path_152" data-name="Path 152" d="M59.951,165.357H51.812a.469.469,0,0,1-.251-.121.418.418,0,0,1-.077-.284V163.36a.463.463,0,0,1,.1-.323.348.348,0,0,1,.263-.107h.946l-.349-1.153c-.03-.181-.058-.365-.079-.553a5.179,5.179,0,0,1-.028-.577,5.072,5.072,0,0,1,.077-.9,6.12,6.12,0,0,1,.235-.912,4.645,4.645,0,0,1,.384-.777,7.249,7.249,0,0,1,.5-.691,5.625,5.625,0,0,1,.628-.546,4.911,4.911,0,0,1,.742-.451,5.107,5.107,0,0,1,.784-.233,3.492,3.492,0,0,1,.784-.088,4.106,4.106,0,0,1,.865.088,4.505,4.505,0,0,1,.8.233,4.453,4.453,0,0,1,.749.456,4,4,0,0,1,.621.588l.177.274-1.342,2.049-.267-.4a1.533,1.533,0,0,0-.277-.372,1.736,1.736,0,0,0-.407-.293,2.631,2.631,0,0,0-.477-.144,2.336,2.336,0,0,0-.486-.051l-.674.2-.579.453-.36.723-.123.8v.342l.077.377.142.358.219.423.749.551,1.03.233h3.056Z" transform="translate(-43.952 -152.435)" fill="#21a6e2"/>
      <path id="Path_153" data-name="Path 153" d="M59.192,164.8a.36.36,0,0,0-.286.1.436.436,0,0,0-.088.288v1.6a.5.5,0,0,0,.091.309.379.379,0,0,0,.319.119H55.778V154.632h2.114V164.8Z" transform="translate(-38.26 -154.306)" fill="#21a6e2"/>
      <path id="Path_154" data-name="Path 154" d="M57.329,165.161a.42.42,0,0,1-.323-.107.414.414,0,0,1-.1-.293v-1.628a.487.487,0,0,1,.06-.277.353.353,0,0,1,.193-.123h2.084v-6.542h2.112v6.542h1.821a.44.44,0,0,0-.326.1.417.417,0,0,0-.1.3v1.628a.363.363,0,0,0,.1.279.6.6,0,0,0,.326.121Zm2.888,1.326a1.025,1.025,0,0,1,.463.107,1.183,1.183,0,0,1,.381.288,1.4,1.4,0,0,1,.26.435,1.831,1.831,0,0,1,.109.558,1.514,1.514,0,0,1-.091.567,1.464,1.464,0,0,1-.265.467,1.261,1.261,0,0,1-.4.309.993.993,0,0,1-.486.107,1.026,1.026,0,0,1-.488-.121,1.227,1.227,0,0,1-.391-.328,1.489,1.489,0,0,1-.249-.488,1.676,1.676,0,0,1,.072-1.114,1.508,1.508,0,0,1,.263-.409,1.152,1.152,0,0,1,.367-.277A.991.991,0,0,1,60.217,166.487Z" transform="translate(-36.765 -152.239)" fill="#21a6e2"/>
      <path id="Path_155" data-name="Path 155" d="M63.559,159.443a3.655,3.655,0,0,1,.588-.514,4.886,4.886,0,0,1,.681-.44c.188-.093.4-.184.623-.277a4.085,4.085,0,0,1,1.8-.288,2.592,2.592,0,0,1,.853.114,7.015,7.015,0,0,1,1.1.316,4.842,4.842,0,0,1,.956.5,5.392,5.392,0,0,1,.849.707,8.141,8.141,0,0,1,.7.837,4.734,4.734,0,0,1,.537.958c.149.349.279.709.4,1.077a9.323,9.323,0,0,1,.284,1.156,9.156,9.156,0,0,1,.137,1.191v2.435H59.661a.42.42,0,0,1-.323-.107.414.414,0,0,1-.1-.293v-1.628a.505.505,0,0,1,.06-.274.34.34,0,0,1,.186-.126h1.3l.381-.193.246-.47v-9.49h2.146Zm2.491,1.286c-.219.1-.377.186-.479.246a2,2,0,0,0-.346.27,2.5,2.5,0,0,0-.33.365c-.091.126-.2.281-.319.472a3.268,3.268,0,0,0-.3.6c-.079.207-.151.43-.219.663a6.594,6.594,0,0,0-.17.719c-.042.242-.072.488-.091.73h6.928a4.08,4.08,0,0,0-.065-.73,7.173,7.173,0,0,0-.163-.719,4.142,4.142,0,0,0-.237-.646,8.238,8.238,0,0,0-.428-.758,3.647,3.647,0,0,0-.493-.665,2.009,2.009,0,0,0-.358-.3,3.354,3.354,0,0,0-.314-.167,3.485,3.485,0,0,0-.335-.137c-.112-.04-.26-.084-.442-.137a2.515,2.515,0,0,0-.653-.081A3.99,3.99,0,0,0,66.049,160.729Z" transform="translate(-33.674 -154.297)" fill="#21a6e2"/>
    </g>
    <g id="Group_9" data-name="Group 9" transform="translate(45.597 328.782)">
      <path id="Path_156" data-name="Path 156" d="M39.832,164.987V165a.426.426,0,0,0-.326.109.476.476,0,0,0-.1.328V167a.458.458,0,0,0,.1.326.4.4,0,0,0,.326.086H26.814a2.53,2.53,0,0,1-.767-.109,4.686,4.686,0,0,1-.7-.288,4.45,4.45,0,0,1-.658-.4,6.557,6.557,0,0,1-.6-.507,6.119,6.119,0,0,1-.784-1.458,4.08,4.08,0,0,1-.23-.881,4.91,4.91,0,0,1-.042-.914,6.129,6.129,0,0,1,.07-.96,4.786,4.786,0,0,1,.2-.833,6.232,6.232,0,0,1,.342-.767,3.263,3.263,0,0,1,.442-.646c.2-.17.393-.328.6-.472a6,6,0,0,1,.658-.393,3.928,3.928,0,0,1,.7-.237,3.322,3.322,0,0,1,.767-.081v2.4l-.626.14a1.721,1.721,0,0,0-.319.177.824.824,0,0,0-.247.26,1.455,1.455,0,0,0-.186.272,1.946,1.946,0,0,0-.142.351l-.144.844a2.228,2.228,0,0,0,.144.842,1.953,1.953,0,0,0,.142.365,1.339,1.339,0,0,0,.186.281c.1.1.186.186.272.258a1.081,1.081,0,0,0,.293.172l.626.163h4.725l-.312-1q-.035-.251-.063-.544c-.016-.2-.026-.391-.026-.588a5.486,5.486,0,0,1,.067-.9,5.161,5.161,0,0,1,.212-.84,8.179,8.179,0,0,1,.36-.777,5.5,5.5,0,0,1,.456-.712,7.623,7.623,0,0,1,.6-.519,4.773,4.773,0,0,1,.656-.433,3.324,3.324,0,0,1,.753-.247,4.451,4.451,0,0,1,1.621,0,3.075,3.075,0,0,1,.739.247,4.874,4.874,0,0,1,.667.416,3.6,3.6,0,0,1,.572.535c.165.228.321.465.472.712a6.248,6.248,0,0,1,.4.777,4.013,4.013,0,0,1,.226.86,6.322,6.322,0,0,1,.065.935,5.872,5.872,0,0,1-.065.881,3.719,3.719,0,0,1-.226.842c-.023.06-.049.123-.074.184a1.2,1.2,0,0,1-.084.174ZM33.386,154.5a1.077,1.077,0,0,1,.472.1,1.258,1.258,0,0,1,.381.293,1.472,1.472,0,0,1,.26.444,1.807,1.807,0,0,1,.114.563,1.6,1.6,0,0,1-.088.572,1.429,1.429,0,0,1-.272.467,1.258,1.258,0,0,1-.4.316.979.979,0,0,1-.491.109,1.028,1.028,0,0,1-.491-.121,1.174,1.174,0,0,1-.4-.33,1.581,1.581,0,0,1-.253-.5,1.6,1.6,0,0,1-.06-.612,1.737,1.737,0,0,1,.13-.516,1.385,1.385,0,0,1,.265-.416,1.272,1.272,0,0,1,.374-.277A1.013,1.013,0,0,1,33.386,154.5Zm1.663,6.481a1.556,1.556,0,0,0-.672.146,1.665,1.665,0,0,0-.549.409,2.036,2.036,0,0,0-.379.616,2.12,2.12,0,0,0-.151.76,2.077,2.077,0,0,0,.128.8,2,2,0,0,0,.384.649,1.818,1.818,0,0,0,.567.428,1.478,1.478,0,0,0,.693.149,1.528,1.528,0,0,0,.67-.17,1.763,1.763,0,0,0,.549-.44,2.045,2.045,0,0,0,.365-.637,2.153,2.153,0,0,0,.126-.772,2.222,2.222,0,0,0-.142-.763,1.962,1.962,0,0,0-.372-.614,1.762,1.762,0,0,0-.549-.414A1.486,1.486,0,0,0,35.049,160.98Zm1.221-6.469a1.078,1.078,0,0,1,.47.107,1.259,1.259,0,0,1,.381.293,1.444,1.444,0,0,1,.26.444,1.743,1.743,0,0,1,.114.563,1.6,1.6,0,0,1-.088.572,1.384,1.384,0,0,1-.27.467,1.327,1.327,0,0,1-.4.316.978.978,0,0,1-.491.109,1.035,1.035,0,0,1-.491-.121,1.178,1.178,0,0,1-.4-.332,1.5,1.5,0,0,1-.251-.493,1.612,1.612,0,0,1-.063-.614,1.815,1.815,0,0,1,.13-.514,1.357,1.357,0,0,1,.265-.416,1.281,1.281,0,0,1,.374-.279A1.049,1.049,0,0,1,36.269,154.511Z" transform="translate(-23.028 -154.473)" fill="#474748"/>
      <path id="Path_157" data-name="Path 157" d="M34.209,156.168h2.13v9.025H30.319a.444.444,0,0,1-.335-.1.388.388,0,0,1-.1-.288v-1.637a.4.4,0,0,1,.1-.291.464.464,0,0,1,.335-.1h3.89Zm-2.235,10.295a1.07,1.07,0,0,1,.47.107,1.165,1.165,0,0,1,.381.291,1.51,1.51,0,0,1,.263.446,1.807,1.807,0,0,1,.114.563,1.555,1.555,0,0,1-.091.572,1.408,1.408,0,0,1-.27.467,1.3,1.3,0,0,1-.4.316,1.019,1.019,0,0,1-.491.109,1.054,1.054,0,0,1-.488-.121,1.181,1.181,0,0,1-.4-.333,1.581,1.581,0,0,1-.253-.5,1.61,1.61,0,0,1-.06-.612,1.722,1.722,0,0,1,.13-.514,1.4,1.4,0,0,1,.265-.419,1.243,1.243,0,0,1,.374-.277A1.039,1.039,0,0,1,31.975,166.463Zm2.881.016a1.081,1.081,0,0,1,.472.107,1.15,1.15,0,0,1,.381.291,1.473,1.473,0,0,1,.26.444,1.906,1.906,0,0,1,.114.563,1.67,1.67,0,0,1-.088.574,1.539,1.539,0,0,1-.27.467,1.4,1.4,0,0,1-.4.316,1.029,1.029,0,0,1-.491.107,1.127,1.127,0,0,1-.674-.256,1.368,1.368,0,0,1-.393-.542,1.7,1.7,0,0,1-.116-.681,1.746,1.746,0,0,1,.149-.677,1.321,1.321,0,0,1,.407-.509A1.034,1.034,0,0,1,34.856,166.479Z" transform="translate(-13.94 -152.261)" fill="#474748"/>
      <path id="Path_158" data-name="Path 158" d="M36.569,168.183l1.219-1.56c.158-.244.309-.5.451-.76s.274-.512.391-.744l-1.033.14h-.244c-.246-.023-.5-.06-.756-.107a5.042,5.042,0,0,1-.737-.2,4.344,4.344,0,0,1-.674-.372,2.59,2.59,0,0,1-.544-.488,3.762,3.762,0,0,1-.551-.7,3.531,3.531,0,0,1-.342-.826,4.74,4.74,0,0,1-.263-.886,5.119,5.119,0,0,1-.086-.991l.158-1.228a5.145,5.145,0,0,1,.409-1.091l.626-.912.784-.7,1-.484,1.1-.163H37.6l1.346.219a2.572,2.572,0,0,1,.723.314,2.973,2.973,0,0,1,.579.486,5.1,5.1,0,0,1,.446.544,4.1,4.1,0,0,1,.37.642,6.865,6.865,0,0,1,.314.793,3.615,3.615,0,0,1,.17.877l.084,1.239-.084,1.614h.674a.366.366,0,0,0-.293.123.457.457,0,0,0-.1.307v1.577a.473.473,0,0,0,.07.277.366.366,0,0,0,.244.135h-1.2l-.967,2.153q-.335.586-.73,1.174t-.884,1.214ZM38.4,162.8l.916-.179.13-1.06-.13-.872c-.021-.17-.044-.328-.07-.481a1.231,1.231,0,0,0-.146-.416l-.388-.649a1.273,1.273,0,0,0-.565-.428l-.674-.165-.77.165a1.349,1.349,0,0,0-.309.186,3.617,3.617,0,0,0-.27.242l-.326.693-.158.853a2.365,2.365,0,0,0,.042.453,2.6,2.6,0,0,0,.116.419,1.907,1.907,0,0,0,.193.391,1.032,1.032,0,0,0,.309.309.879.879,0,0,0,.207.2.765.765,0,0,0,.291.1l.709.179.544.056Z" transform="translate(-9.281 -152.335)" fill="#474748"/>
      <path id="Path_159" data-name="Path 159" d="M51.865,165.161a2.3,2.3,0,0,1-.586-.074,5.674,5.674,0,0,1-.586-.184,2.448,2.448,0,0,1-.53-.26,2.176,2.176,0,0,1-.43-.377,2.64,2.64,0,0,1-.5.479,5.128,5.128,0,0,1-.577.36,1.968,1.968,0,0,1-.639.263,3.366,3.366,0,0,1-.709.072,2.865,2.865,0,0,1-.6-.065,2.516,2.516,0,0,1-.607-.214,3.376,3.376,0,0,1-.533-.34c-.153-.123-.312-.256-.47-.4a4.626,4.626,0,0,1-1.035.742,2.725,2.725,0,0,1-.593.214,2.771,2.771,0,0,1-.612.065,2.723,2.723,0,0,1-.586-.058,2.956,2.956,0,0,1-.544-.165c-.172-.084-.337-.172-.488-.265a5.211,5.211,0,0,1-.465-.328,1.775,1.775,0,0,1-.226.207,2.439,2.439,0,0,1-.293.181l-.688.149h-2.3a.381.381,0,0,1-.293-.107.4.4,0,0,1-.1-.293v-1.572c0-.3.133-.456.4-.456h.953a1.19,1.19,0,0,0,.316-.037.56.56,0,0,0,.249-.126l.388-.388.267-.593.081-.7v-4.693h2.112v5.4a.815.815,0,0,0,.03.221c.019.077.042.149.065.223l.265.453a1.148,1.148,0,0,0,.635.372,1.012,1.012,0,0,0,.637-.077,1.339,1.339,0,0,0,.523-.46,1.718,1.718,0,0,0,.274-.786v-5.344H46.2v5.344a1.61,1.61,0,0,0,.188.767,1.129,1.129,0,0,0,.428.44,1.052,1.052,0,0,0,.549.13,1.153,1.153,0,0,0,.549-.165,1.231,1.231,0,0,0,.43-.449,1.532,1.532,0,0,0,.186-.723v-5.344h2.119v4.693l.123.7a1.7,1.7,0,0,0,.36.593l.47.388.614.163h.251a.312.312,0,0,0-.2.123.542.542,0,0,0-.056.277v1.628a.365.365,0,0,0,.091.277.586.586,0,0,0,.284.123Z" transform="translate(-4.677 -152.229)" fill="#474748"/>
      <path id="Path_160" data-name="Path 160" d="M45.8,164.992v-6.651h2.179v9.079H43.766a.6.6,0,0,1-.381-.107.363.363,0,0,1-.137-.3v-1.586a.385.385,0,0,1,.137-.323.61.61,0,0,1,.381-.107Zm-.681-10.5a1.047,1.047,0,0,1,.47.107,1.181,1.181,0,0,1,.381.291,1.445,1.445,0,0,1,.26.444,1.741,1.741,0,0,1,.114.56,1.608,1.608,0,0,1-.088.574,1.4,1.4,0,0,1-.27.47,1.356,1.356,0,0,1-.4.314,1,1,0,0,1-.491.109,1.035,1.035,0,0,1-.491-.121,1.226,1.226,0,0,1-.4-.33,1.554,1.554,0,0,1-.251-.5,1.617,1.617,0,0,1-.063-.614,1.78,1.78,0,0,1,.13-.512,1.369,1.369,0,0,1,.265-.419,1.233,1.233,0,0,1,.374-.277A1.018,1.018,0,0,1,45.121,154.488ZM48,154.5a1.069,1.069,0,0,1,.47.1,1.165,1.165,0,0,1,.381.293,1.468,1.468,0,0,1,.263.444,1.806,1.806,0,0,1,.112.56,1.559,1.559,0,0,1-.088.574,1.408,1.408,0,0,1-.27.467,1.3,1.3,0,0,1-.4.316,1.025,1.025,0,0,1-.491.109,1.07,1.07,0,0,1-.491-.121,1.226,1.226,0,0,1-.4-.33,1.589,1.589,0,0,1-.312-1.109,1.752,1.752,0,0,1,.128-.516,1.425,1.425,0,0,1,.267-.414,1.179,1.179,0,0,1,.374-.277A1.008,1.008,0,0,1,48,154.5Z" transform="translate(3.772 -154.488)" fill="#474748"/>
    </g>
    <g id="Group_10" data-name="Group 10" transform="translate(6.835 329.14)">
      <path id="Path_161" data-name="Path 161" d="M16.351,164.912a4.67,4.67,0,0,1-.374.658,6.194,6.194,0,0,1-.435.577,6.439,6.439,0,0,1-.549.549,4.862,4.862,0,0,1-.584.44,6.471,6.471,0,0,1-.6.335,4.068,4.068,0,0,1-.653.258l-1.423.251-1.428-.251a4.666,4.666,0,0,1-.686-.258A5.465,5.465,0,0,1,9,167.135a4.465,4.465,0,0,1-.577-.44,3.825,3.825,0,0,1-.5-.549,4.317,4.317,0,0,1-.453-.577,5.5,5.5,0,0,1-.377-.658,5.165,5.165,0,0,1-.335-.686,5.249,5.249,0,0,1-.23-.749,6.233,6.233,0,0,1-.135-.835c-.026-.274-.037-.563-.037-.856,0-.272.012-.544.037-.816a5.854,5.854,0,0,1,.135-.816,4.891,4.891,0,0,1,.253-.809,6.34,6.34,0,0,1,.358-.735c.133-.223.272-.444.423-.663a6.662,6.662,0,0,1,.484-.623,5.387,5.387,0,0,1,.553-.551,3.717,3.717,0,0,1,.651-.44l.314-.165.819,2.051-.13.086a3.226,3.226,0,0,0-.393.27,4.39,4.39,0,0,0-.342.323l-.558.812-.349.874-.123,1.044a5.681,5.681,0,0,0,.051.793,5.2,5.2,0,0,0,.147.7,5.228,5.228,0,0,0,.663,1.2,3.671,3.671,0,0,0,.479.453,6.156,6.156,0,0,0,.556.391,4.913,4.913,0,0,0,.619.179,3.415,3.415,0,0,0,.679.07,3.362,3.362,0,0,0,.679-.07,5.225,5.225,0,0,0,.623-.179,6.437,6.437,0,0,0,.577-.349,2.243,2.243,0,0,0,.5-.463,5.632,5.632,0,0,0,.328-.472,4.573,4.573,0,0,0,.286-.565,3.337,3.337,0,0,0,.2-.616,6.016,6.016,0,0,0,.1-.656v-5.874h2.114v5.618c0,.293-.009.581-.03.856a4.61,4.61,0,0,1-.142.835,4.1,4.1,0,0,1-.246.749C16.568,164.454,16.461,164.684,16.351,164.912Zm-3.658-8.72a1.071,1.071,0,0,1,.47.107,1.127,1.127,0,0,1,.381.291,1.514,1.514,0,0,1,.265.447,1.8,1.8,0,0,1,.109.56,1.559,1.559,0,0,1-.088.574,1.427,1.427,0,0,1-.267.467,1.309,1.309,0,0,1-.407.316,1.018,1.018,0,0,1-.491.109,1.07,1.07,0,0,1-.491-.121,1.2,1.2,0,0,1-.4-.333,1.578,1.578,0,0,1-.251-.5,1.61,1.61,0,0,1-.06-.612,1.7,1.7,0,0,1,.128-.514,1.451,1.451,0,0,1,.267-.419,1.216,1.216,0,0,1,.374-.277A1.038,1.038,0,0,1,12.694,156.191Z" transform="translate(-6.359 -152.619)" fill="#21a6e2"/>
      <path id="Path_162" data-name="Path 162" d="M13.6,163.777q-.021-.938-.053-1.76c-.019-.547-.053-1.074-.1-1.579a13.643,13.643,0,0,0-.221-1.463,10.239,10.239,0,0,0-.4-1.4,9.93,9.93,0,0,0-.64-1.4,12.857,12.857,0,0,0-.935-1.456H13.62a8.522,8.522,0,0,1,1.123,1.888,10.567,10.567,0,0,1,.642,2.107,16.49,16.49,0,0,1,.291,2.374c.047.839.07,1.737.07,2.688Zm5.3.909h.858a.422.422,0,0,0-.286.114.4.4,0,0,0-.1.286v1.637a.336.336,0,0,0,.1.263.653.653,0,0,0,.286.128H12.462v-2.428h4.29v-9.967H18.9Z" transform="translate(0.121 -154.54)" fill="#21a6e2"/>
      <path id="Path_163" data-name="Path 163" d="M23.039,165.357H14.9a.487.487,0,0,1-.253-.121.432.432,0,0,1-.074-.284V163.36a.463.463,0,0,1,.1-.323.348.348,0,0,1,.263-.107h.946l-.349-1.153c-.03-.181-.058-.365-.079-.553a5.172,5.172,0,0,1-.03-.577,5.073,5.073,0,0,1,.079-.9,6.121,6.121,0,0,1,.235-.912,4.644,4.644,0,0,1,.384-.777,7.251,7.251,0,0,1,.5-.691,5.626,5.626,0,0,1,.628-.546,4.8,4.8,0,0,1,.742-.451,5.107,5.107,0,0,1,.784-.233,3.492,3.492,0,0,1,.784-.088,4.106,4.106,0,0,1,.865.088,4.505,4.505,0,0,1,.8.233,4.453,4.453,0,0,1,.749.456,4,4,0,0,1,.621.588l.177.274-1.342,2.049-.267-.4a1.533,1.533,0,0,0-.277-.372,1.751,1.751,0,0,0-.409-.293,2.552,2.552,0,0,0-.474-.144,2.336,2.336,0,0,0-.486-.051l-.674.2-.579.453-.36.723-.123.8v.342l.077.377.142.358.219.423.749.551,1.028.233h3.058Z" transform="translate(4.527 -152.784)" fill="#21a6e2"/>
      <path id="Path_164" data-name="Path 164" d="M20.172,168.69a1.323,1.323,0,0,1,.7-.426,2.077,2.077,0,0,1,.83-.028,2.585,2.585,0,0,1,.819.286,2.536,2.536,0,0,1,.66.5l.142.149-.8,1.286-.2-.265a1.439,1.439,0,0,0-.379-.367.848.848,0,0,0-.46-.123l-.367.109-.279.288-.2.3-.035.453.035.358.2.314.423.333.6.126h1.458v1.5H18.2v-1.5h1.419l-.233-.677a1.642,1.642,0,0,1-.072-.27,1.905,1.905,0,0,1-.03-.363l.151-.921c.063-.133.13-.263.2-.386a2.449,2.449,0,0,1,.253-.346Zm1.893-1.467V154.642H19.953v12.581Z" transform="translate(9.329 -154.642)" fill="#21a6e2"/>
    </g>
    <g id="Group_31" data-name="Group 31" transform="translate(33.108 22.99)">
      <circle id="Ellipse_2" data-name="Ellipse 2" cx="89.821" cy="89.821" r="89.821" fill="#1a1818"/>
      <circle id="Ellipse_3" data-name="Ellipse 3" cx="80.204" cy="80.204" r="80.204" transform="translate(9.617 9.617)" fill="#fff"/>
      <circle id="Ellipse_4" data-name="Ellipse 4" cx="72.59" cy="72.59" r="72.59" transform="translate(17.231 17.23)" fill="#1a1818"/>
      <path id="Path_165" data-name="Path 165" d="M110.679,33.305l-17.055,37.4s-43.988,1.551-53.29,39.147c0,0-13.469-23.545,4.263-48.448C44.6,61.4,64.653,32.24,110.679,33.305Z" transform="translate(-7.874 -9.355)" fill="#fe0"/>
      <path id="Path_166" data-name="Path 166" d="M64.344,69.5c0-.581,15.7-35.172,15.7-35.172S142.9,113.785,72.22,169.886L61,170.37s59.008-41.567,20.638-109.3l-4.844,9.093Z" transform="translate(26.01 -7.958)" fill="#00a1ed"/>
      <path id="Path_167" data-name="Path 167" d="M68.527,53.206S37.45,60.473,38.9,87.8c0,0,45.637,62.787,120.633,5.523C159.536,93.32,60.36,121.807,68.527,53.206Z" transform="translate(-3.343 17.06)" fill="#e0007a"/>
    </g>
  </g>
</svg>
